G75*
%MOIN*%
%OFA0B0*%
%FSLAX24Y24*%
%IPPOS*%
%LPD*%
%AMOC8*
5,1,8,0,0,1.08239X$1,22.5*
%
%ADD10C,0.0000*%
%ADD11C,0.0030*%
%ADD12C,0.0080*%
%ADD13C,0.0010*%
%ADD14C,0.0050*%
%ADD15C,0.0040*%
%ADD16C,0.0059*%
D10*
X000180Y000180D02*
X000180Y024176D01*
X039050Y024176D01*
X039050Y000180D01*
X000180Y000180D01*
X001089Y003180D02*
X001091Y003228D01*
X001097Y003276D01*
X001107Y003323D01*
X001120Y003369D01*
X001138Y003414D01*
X001158Y003458D01*
X001183Y003500D01*
X001211Y003539D01*
X001241Y003576D01*
X001275Y003610D01*
X001312Y003642D01*
X001350Y003671D01*
X001391Y003696D01*
X001434Y003718D01*
X001479Y003736D01*
X001525Y003750D01*
X001572Y003761D01*
X001620Y003768D01*
X001668Y003771D01*
X001716Y003770D01*
X001764Y003765D01*
X001812Y003756D01*
X001858Y003744D01*
X001903Y003727D01*
X001947Y003707D01*
X001989Y003684D01*
X002029Y003657D01*
X002067Y003627D01*
X002102Y003594D01*
X002134Y003558D01*
X002164Y003520D01*
X002190Y003479D01*
X002212Y003436D01*
X002232Y003392D01*
X002247Y003347D01*
X002259Y003300D01*
X002267Y003252D01*
X002271Y003204D01*
X002271Y003156D01*
X002267Y003108D01*
X002259Y003060D01*
X002247Y003013D01*
X002232Y002968D01*
X002212Y002924D01*
X002190Y002881D01*
X002164Y002840D01*
X002134Y002802D01*
X002102Y002766D01*
X002067Y002733D01*
X002029Y002703D01*
X001989Y002676D01*
X001947Y002653D01*
X001903Y002633D01*
X001858Y002616D01*
X001812Y002604D01*
X001764Y002595D01*
X001716Y002590D01*
X001668Y002589D01*
X001620Y002592D01*
X001572Y002599D01*
X001525Y002610D01*
X001479Y002624D01*
X001434Y002642D01*
X001391Y002664D01*
X001350Y002689D01*
X001312Y002718D01*
X001275Y002750D01*
X001241Y002784D01*
X001211Y002821D01*
X001183Y002860D01*
X001158Y002902D01*
X001138Y002946D01*
X001120Y002991D01*
X001107Y003037D01*
X001097Y003084D01*
X001091Y003132D01*
X001089Y003180D01*
X001089Y006680D02*
X001091Y006728D01*
X001097Y006776D01*
X001107Y006823D01*
X001120Y006869D01*
X001138Y006914D01*
X001158Y006958D01*
X001183Y007000D01*
X001211Y007039D01*
X001241Y007076D01*
X001275Y007110D01*
X001312Y007142D01*
X001350Y007171D01*
X001391Y007196D01*
X001434Y007218D01*
X001479Y007236D01*
X001525Y007250D01*
X001572Y007261D01*
X001620Y007268D01*
X001668Y007271D01*
X001716Y007270D01*
X001764Y007265D01*
X001812Y007256D01*
X001858Y007244D01*
X001903Y007227D01*
X001947Y007207D01*
X001989Y007184D01*
X002029Y007157D01*
X002067Y007127D01*
X002102Y007094D01*
X002134Y007058D01*
X002164Y007020D01*
X002190Y006979D01*
X002212Y006936D01*
X002232Y006892D01*
X002247Y006847D01*
X002259Y006800D01*
X002267Y006752D01*
X002271Y006704D01*
X002271Y006656D01*
X002267Y006608D01*
X002259Y006560D01*
X002247Y006513D01*
X002232Y006468D01*
X002212Y006424D01*
X002190Y006381D01*
X002164Y006340D01*
X002134Y006302D01*
X002102Y006266D01*
X002067Y006233D01*
X002029Y006203D01*
X001989Y006176D01*
X001947Y006153D01*
X001903Y006133D01*
X001858Y006116D01*
X001812Y006104D01*
X001764Y006095D01*
X001716Y006090D01*
X001668Y006089D01*
X001620Y006092D01*
X001572Y006099D01*
X001525Y006110D01*
X001479Y006124D01*
X001434Y006142D01*
X001391Y006164D01*
X001350Y006189D01*
X001312Y006218D01*
X001275Y006250D01*
X001241Y006284D01*
X001211Y006321D01*
X001183Y006360D01*
X001158Y006402D01*
X001138Y006446D01*
X001120Y006491D01*
X001107Y006537D01*
X001097Y006584D01*
X001091Y006632D01*
X001089Y006680D01*
X011680Y001680D02*
X011680Y022680D01*
X037080Y022680D01*
X037680Y022080D01*
X037680Y017580D01*
X038680Y016580D01*
X038680Y003680D01*
X037680Y002680D01*
X037680Y001680D01*
X011680Y001680D01*
X016530Y002680D02*
X016532Y002730D01*
X016538Y002780D01*
X016548Y002830D01*
X016561Y002878D01*
X016578Y002926D01*
X016599Y002972D01*
X016623Y003016D01*
X016651Y003058D01*
X016682Y003098D01*
X016716Y003135D01*
X016753Y003170D01*
X016792Y003201D01*
X016833Y003230D01*
X016877Y003255D01*
X016923Y003277D01*
X016970Y003295D01*
X017018Y003309D01*
X017067Y003320D01*
X017117Y003327D01*
X017167Y003330D01*
X017218Y003329D01*
X017268Y003324D01*
X017318Y003315D01*
X017366Y003303D01*
X017414Y003286D01*
X017460Y003266D01*
X017505Y003243D01*
X017548Y003216D01*
X017588Y003186D01*
X017626Y003153D01*
X017661Y003117D01*
X017694Y003078D01*
X017723Y003037D01*
X017749Y002994D01*
X017772Y002949D01*
X017791Y002902D01*
X017806Y002854D01*
X017818Y002805D01*
X017826Y002755D01*
X017830Y002705D01*
X017830Y002655D01*
X017826Y002605D01*
X017818Y002555D01*
X017806Y002506D01*
X017791Y002458D01*
X017772Y002411D01*
X017749Y002366D01*
X017723Y002323D01*
X017694Y002282D01*
X017661Y002243D01*
X017626Y002207D01*
X017588Y002174D01*
X017548Y002144D01*
X017505Y002117D01*
X017460Y002094D01*
X017414Y002074D01*
X017366Y002057D01*
X017318Y002045D01*
X017268Y002036D01*
X017218Y002031D01*
X017167Y002030D01*
X017117Y002033D01*
X017067Y002040D01*
X017018Y002051D01*
X016970Y002065D01*
X016923Y002083D01*
X016877Y002105D01*
X016833Y002130D01*
X016792Y002159D01*
X016753Y002190D01*
X016716Y002225D01*
X016682Y002262D01*
X016651Y002302D01*
X016623Y002344D01*
X016599Y002388D01*
X016578Y002434D01*
X016561Y002482D01*
X016548Y002530D01*
X016538Y002580D01*
X016532Y002630D01*
X016530Y002680D01*
X037030Y015680D02*
X037032Y015730D01*
X037038Y015780D01*
X037048Y015830D01*
X037061Y015878D01*
X037078Y015926D01*
X037099Y015972D01*
X037123Y016016D01*
X037151Y016058D01*
X037182Y016098D01*
X037216Y016135D01*
X037253Y016170D01*
X037292Y016201D01*
X037333Y016230D01*
X037377Y016255D01*
X037423Y016277D01*
X037470Y016295D01*
X037518Y016309D01*
X037567Y016320D01*
X037617Y016327D01*
X037667Y016330D01*
X037718Y016329D01*
X037768Y016324D01*
X037818Y016315D01*
X037866Y016303D01*
X037914Y016286D01*
X037960Y016266D01*
X038005Y016243D01*
X038048Y016216D01*
X038088Y016186D01*
X038126Y016153D01*
X038161Y016117D01*
X038194Y016078D01*
X038223Y016037D01*
X038249Y015994D01*
X038272Y015949D01*
X038291Y015902D01*
X038306Y015854D01*
X038318Y015805D01*
X038326Y015755D01*
X038330Y015705D01*
X038330Y015655D01*
X038326Y015605D01*
X038318Y015555D01*
X038306Y015506D01*
X038291Y015458D01*
X038272Y015411D01*
X038249Y015366D01*
X038223Y015323D01*
X038194Y015282D01*
X038161Y015243D01*
X038126Y015207D01*
X038088Y015174D01*
X038048Y015144D01*
X038005Y015117D01*
X037960Y015094D01*
X037914Y015074D01*
X037866Y015057D01*
X037818Y015045D01*
X037768Y015036D01*
X037718Y015031D01*
X037667Y015030D01*
X037617Y015033D01*
X037567Y015040D01*
X037518Y015051D01*
X037470Y015065D01*
X037423Y015083D01*
X037377Y015105D01*
X037333Y015130D01*
X037292Y015159D01*
X037253Y015190D01*
X037216Y015225D01*
X037182Y015262D01*
X037151Y015302D01*
X037123Y015344D01*
X037099Y015388D01*
X037078Y015434D01*
X037061Y015482D01*
X037048Y015530D01*
X037038Y015580D01*
X037032Y015630D01*
X037030Y015680D01*
X017030Y021680D02*
X017032Y021730D01*
X017038Y021780D01*
X017048Y021830D01*
X017061Y021878D01*
X017078Y021926D01*
X017099Y021972D01*
X017123Y022016D01*
X017151Y022058D01*
X017182Y022098D01*
X017216Y022135D01*
X017253Y022170D01*
X017292Y022201D01*
X017333Y022230D01*
X017377Y022255D01*
X017423Y022277D01*
X017470Y022295D01*
X017518Y022309D01*
X017567Y022320D01*
X017617Y022327D01*
X017667Y022330D01*
X017718Y022329D01*
X017768Y022324D01*
X017818Y022315D01*
X017866Y022303D01*
X017914Y022286D01*
X017960Y022266D01*
X018005Y022243D01*
X018048Y022216D01*
X018088Y022186D01*
X018126Y022153D01*
X018161Y022117D01*
X018194Y022078D01*
X018223Y022037D01*
X018249Y021994D01*
X018272Y021949D01*
X018291Y021902D01*
X018306Y021854D01*
X018318Y021805D01*
X018326Y021755D01*
X018330Y021705D01*
X018330Y021655D01*
X018326Y021605D01*
X018318Y021555D01*
X018306Y021506D01*
X018291Y021458D01*
X018272Y021411D01*
X018249Y021366D01*
X018223Y021323D01*
X018194Y021282D01*
X018161Y021243D01*
X018126Y021207D01*
X018088Y021174D01*
X018048Y021144D01*
X018005Y021117D01*
X017960Y021094D01*
X017914Y021074D01*
X017866Y021057D01*
X017818Y021045D01*
X017768Y021036D01*
X017718Y021031D01*
X017667Y021030D01*
X017617Y021033D01*
X017567Y021040D01*
X017518Y021051D01*
X017470Y021065D01*
X017423Y021083D01*
X017377Y021105D01*
X017333Y021130D01*
X017292Y021159D01*
X017253Y021190D01*
X017216Y021225D01*
X017182Y021262D01*
X017151Y021302D01*
X017123Y021344D01*
X017099Y021388D01*
X017078Y021434D01*
X017061Y021482D01*
X017048Y021530D01*
X017038Y021580D01*
X017032Y021630D01*
X017030Y021680D01*
X001089Y019680D02*
X001091Y019728D01*
X001097Y019776D01*
X001107Y019823D01*
X001120Y019869D01*
X001138Y019914D01*
X001158Y019958D01*
X001183Y020000D01*
X001211Y020039D01*
X001241Y020076D01*
X001275Y020110D01*
X001312Y020142D01*
X001350Y020171D01*
X001391Y020196D01*
X001434Y020218D01*
X001479Y020236D01*
X001525Y020250D01*
X001572Y020261D01*
X001620Y020268D01*
X001668Y020271D01*
X001716Y020270D01*
X001764Y020265D01*
X001812Y020256D01*
X001858Y020244D01*
X001903Y020227D01*
X001947Y020207D01*
X001989Y020184D01*
X002029Y020157D01*
X002067Y020127D01*
X002102Y020094D01*
X002134Y020058D01*
X002164Y020020D01*
X002190Y019979D01*
X002212Y019936D01*
X002232Y019892D01*
X002247Y019847D01*
X002259Y019800D01*
X002267Y019752D01*
X002271Y019704D01*
X002271Y019656D01*
X002267Y019608D01*
X002259Y019560D01*
X002247Y019513D01*
X002232Y019468D01*
X002212Y019424D01*
X002190Y019381D01*
X002164Y019340D01*
X002134Y019302D01*
X002102Y019266D01*
X002067Y019233D01*
X002029Y019203D01*
X001989Y019176D01*
X001947Y019153D01*
X001903Y019133D01*
X001858Y019116D01*
X001812Y019104D01*
X001764Y019095D01*
X001716Y019090D01*
X001668Y019089D01*
X001620Y019092D01*
X001572Y019099D01*
X001525Y019110D01*
X001479Y019124D01*
X001434Y019142D01*
X001391Y019164D01*
X001350Y019189D01*
X001312Y019218D01*
X001275Y019250D01*
X001241Y019284D01*
X001211Y019321D01*
X001183Y019360D01*
X001158Y019402D01*
X001138Y019446D01*
X001120Y019491D01*
X001107Y019537D01*
X001097Y019584D01*
X001091Y019632D01*
X001089Y019680D01*
X001089Y016680D02*
X001091Y016728D01*
X001097Y016776D01*
X001107Y016823D01*
X001120Y016869D01*
X001138Y016914D01*
X001158Y016958D01*
X001183Y017000D01*
X001211Y017039D01*
X001241Y017076D01*
X001275Y017110D01*
X001312Y017142D01*
X001350Y017171D01*
X001391Y017196D01*
X001434Y017218D01*
X001479Y017236D01*
X001525Y017250D01*
X001572Y017261D01*
X001620Y017268D01*
X001668Y017271D01*
X001716Y017270D01*
X001764Y017265D01*
X001812Y017256D01*
X001858Y017244D01*
X001903Y017227D01*
X001947Y017207D01*
X001989Y017184D01*
X002029Y017157D01*
X002067Y017127D01*
X002102Y017094D01*
X002134Y017058D01*
X002164Y017020D01*
X002190Y016979D01*
X002212Y016936D01*
X002232Y016892D01*
X002247Y016847D01*
X002259Y016800D01*
X002267Y016752D01*
X002271Y016704D01*
X002271Y016656D01*
X002267Y016608D01*
X002259Y016560D01*
X002247Y016513D01*
X002232Y016468D01*
X002212Y016424D01*
X002190Y016381D01*
X002164Y016340D01*
X002134Y016302D01*
X002102Y016266D01*
X002067Y016233D01*
X002029Y016203D01*
X001989Y016176D01*
X001947Y016153D01*
X001903Y016133D01*
X001858Y016116D01*
X001812Y016104D01*
X001764Y016095D01*
X001716Y016090D01*
X001668Y016089D01*
X001620Y016092D01*
X001572Y016099D01*
X001525Y016110D01*
X001479Y016124D01*
X001434Y016142D01*
X001391Y016164D01*
X001350Y016189D01*
X001312Y016218D01*
X001275Y016250D01*
X001241Y016284D01*
X001211Y016321D01*
X001183Y016360D01*
X001158Y016402D01*
X001138Y016446D01*
X001120Y016491D01*
X001107Y016537D01*
X001097Y016584D01*
X001091Y016632D01*
X001089Y016680D01*
D11*
X018895Y020302D02*
X018956Y020240D01*
X019018Y020240D01*
X019080Y020302D01*
X019080Y020425D01*
X019142Y020487D01*
X019203Y020487D01*
X019265Y020425D01*
X019265Y020302D01*
X019203Y020240D01*
X018895Y020302D02*
X018895Y020425D01*
X018956Y020487D01*
X018956Y020608D02*
X019203Y020608D01*
X019265Y020670D01*
X019265Y020794D01*
X019203Y020855D01*
X019265Y020977D02*
X019265Y021224D01*
X019265Y020977D02*
X018895Y020977D01*
X018956Y020855D02*
X018895Y020794D01*
X018895Y020670D01*
X018956Y020608D01*
X019895Y020608D02*
X019895Y020794D01*
X019956Y020855D01*
X020203Y020855D01*
X020265Y020794D01*
X020265Y020608D01*
X019895Y020608D01*
X019956Y020487D02*
X019895Y020425D01*
X019895Y020302D01*
X019956Y020240D01*
X020018Y020240D01*
X020080Y020302D01*
X020080Y020425D01*
X020142Y020487D01*
X020203Y020487D01*
X020265Y020425D01*
X020265Y020302D01*
X020203Y020240D01*
X020895Y020118D02*
X021018Y020241D01*
X021265Y020241D01*
X021265Y020363D02*
X020895Y020363D01*
X020895Y020548D01*
X020956Y020610D01*
X021080Y020610D01*
X021142Y020548D01*
X021142Y020363D01*
X021142Y020486D02*
X021265Y020610D01*
X021203Y020731D02*
X021080Y020731D01*
X021018Y020793D01*
X021018Y020916D01*
X021080Y020978D01*
X021142Y020978D01*
X021142Y020731D01*
X021203Y020731D02*
X021265Y020793D01*
X021265Y020916D01*
X021265Y021161D02*
X020956Y021161D01*
X020895Y021223D01*
X021080Y021223D02*
X021080Y021099D01*
X021895Y021174D02*
X022265Y021174D01*
X022265Y020988D01*
X022203Y020927D01*
X022080Y020927D01*
X022018Y020988D01*
X022018Y021174D01*
X022080Y020805D02*
X022018Y020744D01*
X022018Y020558D01*
X022265Y020558D01*
X022265Y020437D02*
X022265Y020252D01*
X022203Y020190D01*
X022080Y020190D01*
X022018Y020252D01*
X022018Y020437D01*
X022327Y020437D01*
X022388Y020375D01*
X022388Y020313D01*
X022265Y020805D02*
X022080Y020805D01*
X022808Y020795D02*
X023055Y020795D01*
X022932Y020795D02*
X022932Y021165D01*
X022808Y021042D01*
X023177Y021104D02*
X023238Y021165D01*
X023362Y021165D01*
X023424Y021104D01*
X023424Y021042D01*
X023362Y020980D01*
X023424Y020918D01*
X023424Y020857D01*
X023362Y020795D01*
X023238Y020795D01*
X023177Y020857D01*
X023300Y020980D02*
X023362Y020980D01*
X023808Y021042D02*
X023932Y021165D01*
X023932Y020795D01*
X024055Y020795D02*
X023808Y020795D01*
X024177Y020795D02*
X024424Y021042D01*
X024424Y021104D01*
X024362Y021165D01*
X024238Y021165D01*
X024177Y021104D01*
X024177Y020795D02*
X024424Y020795D01*
X024808Y020795D02*
X025055Y020795D01*
X025177Y020795D02*
X025424Y020795D01*
X025300Y020795D02*
X025300Y021165D01*
X025177Y021042D01*
X024932Y021165D02*
X024932Y020795D01*
X024808Y021042D02*
X024932Y021165D01*
X025808Y021042D02*
X025932Y021165D01*
X025932Y020795D01*
X026055Y020795D02*
X025808Y020795D01*
X026177Y020857D02*
X026177Y021104D01*
X026238Y021165D01*
X026362Y021165D01*
X026424Y021104D01*
X026177Y020857D01*
X026238Y020795D01*
X026362Y020795D01*
X026424Y020857D01*
X026424Y021104D01*
X026977Y021104D02*
X026977Y021042D01*
X027038Y020980D01*
X027224Y020980D01*
X027224Y020857D02*
X027224Y021104D01*
X027162Y021165D01*
X027038Y021165D01*
X026977Y021104D01*
X026977Y020857D02*
X027038Y020795D01*
X027162Y020795D01*
X027224Y020857D01*
X027977Y020857D02*
X027977Y020918D01*
X028038Y020980D01*
X028162Y020980D01*
X028224Y020918D01*
X028224Y020857D01*
X028162Y020795D01*
X028038Y020795D01*
X027977Y020857D01*
X028038Y020980D02*
X027977Y021042D01*
X027977Y021104D01*
X028038Y021165D01*
X028162Y021165D01*
X028224Y021104D01*
X028224Y021042D01*
X028162Y020980D01*
X029577Y020857D02*
X029577Y020795D01*
X029577Y020857D02*
X029824Y021104D01*
X029824Y021165D01*
X029577Y021165D01*
X030577Y020980D02*
X030577Y020857D01*
X030638Y020795D01*
X030762Y020795D01*
X030824Y020857D01*
X030824Y020918D01*
X030762Y020980D01*
X030577Y020980D01*
X030700Y021104D01*
X030824Y021165D01*
X031577Y021165D02*
X031577Y020980D01*
X031700Y021042D01*
X031762Y021042D01*
X031824Y020980D01*
X031824Y020857D01*
X031762Y020795D01*
X031638Y020795D01*
X031577Y020857D01*
X031577Y021165D02*
X031824Y021165D01*
X032577Y020980D02*
X032824Y020980D01*
X032762Y020795D02*
X032762Y021165D01*
X032577Y020980D01*
X033577Y020857D02*
X033638Y020795D01*
X033762Y020795D01*
X033824Y020857D01*
X033824Y020918D01*
X033762Y020980D01*
X033700Y020980D01*
X033762Y020980D02*
X033824Y021042D01*
X033824Y021104D01*
X033762Y021165D01*
X033638Y021165D01*
X033577Y021104D01*
X034577Y021104D02*
X034638Y021165D01*
X034762Y021165D01*
X034824Y021104D01*
X034824Y021042D01*
X034577Y020795D01*
X034824Y020795D01*
X035577Y020795D02*
X035824Y020795D01*
X035700Y020795D02*
X035700Y021165D01*
X035577Y021042D01*
X036577Y021104D02*
X036577Y020857D01*
X036824Y021104D01*
X036824Y020857D01*
X036762Y020795D01*
X036638Y020795D01*
X036577Y020857D01*
X036577Y021104D02*
X036638Y021165D01*
X036762Y021165D01*
X036824Y021104D01*
X035061Y022257D02*
X034999Y022195D01*
X034876Y022195D01*
X034814Y022257D01*
X034814Y022504D01*
X034876Y022565D01*
X034999Y022565D01*
X035061Y022504D01*
X035061Y022257D01*
X034693Y022565D02*
X034446Y022195D01*
X034324Y022195D02*
X034200Y022195D01*
X034262Y022195D02*
X034262Y022565D01*
X034200Y022565D02*
X034324Y022565D01*
X033648Y022565D02*
X033648Y022195D01*
X033587Y022195D02*
X033710Y022195D01*
X033465Y022195D02*
X033280Y022195D01*
X033218Y022257D01*
X033280Y022318D01*
X033465Y022318D01*
X033465Y022380D02*
X033465Y022195D01*
X033465Y022380D02*
X033403Y022442D01*
X033280Y022442D01*
X033096Y022442D02*
X032973Y022442D01*
X033034Y022504D02*
X033034Y022257D01*
X033096Y022195D01*
X032851Y022195D02*
X032727Y022195D01*
X032789Y022195D02*
X032789Y022442D01*
X032727Y022442D01*
X032606Y022442D02*
X032421Y022442D01*
X032359Y022380D01*
X032359Y022257D01*
X032421Y022195D01*
X032606Y022195D01*
X032606Y022133D02*
X032606Y022442D01*
X032789Y022565D02*
X032789Y022627D01*
X032606Y022133D02*
X032544Y022072D01*
X032482Y022072D01*
X032237Y022195D02*
X032113Y022195D01*
X032175Y022195D02*
X032175Y022442D01*
X032113Y022442D01*
X031992Y022504D02*
X031930Y022565D01*
X031745Y022565D01*
X031745Y022195D01*
X031930Y022195D01*
X031992Y022257D01*
X031992Y022504D01*
X032175Y022565D02*
X032175Y022627D01*
X033587Y022565D02*
X033648Y022565D01*
X027461Y022504D02*
X027461Y022257D01*
X027399Y022195D01*
X027276Y022195D01*
X027214Y022257D01*
X027214Y022504D01*
X027276Y022565D01*
X027399Y022565D01*
X027461Y022504D01*
X027093Y022565D02*
X026846Y022195D01*
X026724Y022195D02*
X026600Y022195D01*
X026662Y022195D02*
X026662Y022565D01*
X026600Y022565D02*
X026724Y022565D01*
X026048Y022565D02*
X026048Y022195D01*
X025987Y022195D02*
X026110Y022195D01*
X025865Y022195D02*
X025680Y022195D01*
X025618Y022257D01*
X025680Y022318D01*
X025865Y022318D01*
X025865Y022380D02*
X025865Y022195D01*
X025865Y022380D02*
X025803Y022442D01*
X025680Y022442D01*
X025496Y022442D02*
X025373Y022442D01*
X025434Y022504D02*
X025434Y022257D01*
X025496Y022195D01*
X025251Y022195D02*
X025127Y022195D01*
X025189Y022195D02*
X025189Y022442D01*
X025127Y022442D01*
X025006Y022442D02*
X024821Y022442D01*
X024759Y022380D01*
X024759Y022257D01*
X024821Y022195D01*
X025006Y022195D01*
X025006Y022133D02*
X025006Y022442D01*
X025189Y022565D02*
X025189Y022627D01*
X024575Y022627D02*
X024575Y022565D01*
X024575Y022442D02*
X024575Y022195D01*
X024513Y022195D02*
X024637Y022195D01*
X024392Y022257D02*
X024392Y022504D01*
X024330Y022565D01*
X024145Y022565D01*
X024145Y022195D01*
X024330Y022195D01*
X024392Y022257D01*
X024513Y022442D02*
X024575Y022442D01*
X024882Y022072D02*
X024944Y022072D01*
X025006Y022133D01*
X025987Y022565D02*
X026048Y022565D01*
X021265Y019995D02*
X021018Y019995D01*
X020895Y020118D01*
X021080Y019995D02*
X021080Y020241D01*
X020265Y020977D02*
X020018Y020977D01*
X019895Y021100D01*
X020018Y021224D01*
X020265Y021224D01*
X020080Y021224D02*
X020080Y020977D01*
X024495Y004175D02*
X024495Y003928D01*
X024495Y004051D02*
X024865Y004051D01*
X024803Y003806D02*
X024742Y003806D01*
X024680Y003744D01*
X024680Y003621D01*
X024618Y003559D01*
X024556Y003559D01*
X024495Y003621D01*
X024495Y003744D01*
X024556Y003806D01*
X024803Y003806D02*
X024865Y003744D01*
X024865Y003621D01*
X024803Y003559D01*
X024865Y003438D02*
X024742Y003314D01*
X024742Y003376D02*
X024742Y003191D01*
X024865Y003191D02*
X024495Y003191D01*
X024495Y003376D01*
X024556Y003438D01*
X024680Y003438D01*
X024742Y003376D01*
X025377Y003257D02*
X025439Y003195D01*
X025562Y003195D01*
X025624Y003257D01*
X025624Y003318D01*
X025562Y003380D01*
X025500Y003380D01*
X025562Y003380D02*
X025624Y003442D01*
X025624Y003504D01*
X025562Y003565D01*
X025439Y003565D01*
X025377Y003504D01*
X025745Y003442D02*
X025869Y003195D01*
X025992Y003442D01*
X026477Y003380D02*
X026600Y003442D01*
X026662Y003442D01*
X026724Y003380D01*
X026724Y003257D01*
X026662Y003195D01*
X026539Y003195D01*
X026477Y003257D01*
X026477Y003380D02*
X026477Y003565D01*
X026724Y003565D01*
X026845Y003442D02*
X026969Y003195D01*
X027092Y003442D01*
X027749Y003504D02*
X027749Y003257D01*
X027811Y003195D01*
X027934Y003195D01*
X027996Y003257D01*
X027996Y003380D01*
X027872Y003380D01*
X027749Y003504D02*
X027811Y003565D01*
X027934Y003565D01*
X027996Y003504D01*
X028117Y003442D02*
X028302Y003442D01*
X028364Y003380D01*
X028364Y003195D01*
X028486Y003257D02*
X028486Y003380D01*
X028547Y003442D01*
X028732Y003442D01*
X028732Y003565D02*
X028732Y003195D01*
X028547Y003195D01*
X028486Y003257D01*
X028117Y003195D02*
X028117Y003442D01*
X029327Y003565D02*
X029327Y003318D01*
X029450Y003195D01*
X029574Y003318D01*
X029574Y003565D01*
X029695Y003442D02*
X029757Y003442D01*
X029757Y003195D01*
X029695Y003195D02*
X029819Y003195D01*
X029941Y003195D02*
X029941Y003442D01*
X030126Y003442D01*
X030188Y003380D01*
X030188Y003195D01*
X029757Y003565D02*
X029757Y003627D01*
X031545Y003504D02*
X031545Y003257D01*
X031792Y003504D01*
X031792Y003257D01*
X031730Y003195D01*
X031607Y003195D01*
X031545Y003257D01*
X031545Y003504D02*
X031607Y003565D01*
X031730Y003565D01*
X031792Y003504D01*
X032545Y003442D02*
X032668Y003565D01*
X032668Y003195D01*
X032545Y003195D02*
X032792Y003195D01*
X033545Y003195D02*
X033792Y003442D01*
X033792Y003504D01*
X033730Y003565D01*
X033607Y003565D01*
X033545Y003504D01*
X033545Y003195D02*
X033792Y003195D01*
X034545Y003257D02*
X034607Y003195D01*
X034730Y003195D01*
X034792Y003257D01*
X034792Y003318D01*
X034730Y003380D01*
X034668Y003380D01*
X034730Y003380D02*
X034792Y003442D01*
X034792Y003504D01*
X034730Y003565D01*
X034607Y003565D01*
X034545Y003504D01*
X035545Y003380D02*
X035792Y003380D01*
X035730Y003195D02*
X035730Y003565D01*
X035545Y003380D01*
X036545Y003380D02*
X036668Y003442D01*
X036730Y003442D01*
X036792Y003380D01*
X036792Y003257D01*
X036730Y003195D01*
X036607Y003195D01*
X036545Y003257D01*
X036545Y003380D02*
X036545Y003565D01*
X036792Y003565D01*
X035578Y002247D02*
X035454Y002247D01*
X035516Y002247D02*
X035516Y001877D01*
X035454Y001877D02*
X035578Y001877D01*
X035700Y001877D02*
X035700Y002124D01*
X035885Y002124D01*
X035947Y002062D01*
X035947Y001877D01*
X034965Y001877D02*
X034779Y001877D01*
X034718Y001939D01*
X034718Y002062D01*
X034779Y002124D01*
X034965Y002124D01*
X034965Y001815D01*
X034903Y001754D01*
X034841Y001754D01*
X034596Y001939D02*
X034596Y002062D01*
X034535Y002124D01*
X034411Y002124D01*
X034349Y002062D01*
X034349Y001939D01*
X034411Y001877D01*
X034535Y001877D01*
X034596Y001939D01*
X034227Y001877D02*
X034104Y001877D01*
X034166Y001877D02*
X034166Y002247D01*
X034104Y002247D01*
X033921Y002124D02*
X033797Y002124D01*
X033797Y002000D02*
X033982Y002000D01*
X033982Y002062D02*
X033982Y001877D01*
X033797Y001877D01*
X033736Y001939D01*
X033797Y002000D01*
X033921Y002124D02*
X033982Y002062D01*
X033614Y002062D02*
X033614Y001877D01*
X033614Y002062D02*
X033552Y002124D01*
X033367Y002124D01*
X033367Y001877D01*
X033246Y001877D02*
X033246Y002124D01*
X033122Y002247D01*
X032999Y002124D01*
X032999Y001877D01*
X032999Y002062D02*
X033246Y002062D01*
X023865Y003191D02*
X023865Y003314D01*
X023865Y003253D02*
X023495Y003253D01*
X023495Y003314D02*
X023495Y003191D01*
X023556Y003437D02*
X023803Y003437D01*
X023865Y003498D01*
X023865Y003622D01*
X023803Y003683D01*
X023556Y003683D01*
X023495Y003622D01*
X023495Y003498D01*
X023556Y003437D01*
X023618Y003805D02*
X023865Y003805D01*
X023742Y003805D02*
X023618Y003928D01*
X023618Y003990D01*
D12*
X035480Y004830D02*
X035480Y006530D01*
X036287Y006880D02*
X037080Y006880D01*
X037880Y006530D02*
X037880Y004830D01*
X037080Y004480D02*
X036275Y004480D01*
X035980Y005680D02*
X035982Y005732D01*
X035988Y005784D01*
X035998Y005836D01*
X036011Y005886D01*
X036028Y005936D01*
X036049Y005984D01*
X036074Y006030D01*
X036102Y006074D01*
X036133Y006116D01*
X036167Y006156D01*
X036204Y006193D01*
X036244Y006227D01*
X036286Y006258D01*
X036330Y006286D01*
X036376Y006311D01*
X036424Y006332D01*
X036474Y006349D01*
X036524Y006362D01*
X036576Y006372D01*
X036628Y006378D01*
X036680Y006380D01*
X036732Y006378D01*
X036784Y006372D01*
X036836Y006362D01*
X036886Y006349D01*
X036936Y006332D01*
X036984Y006311D01*
X037030Y006286D01*
X037074Y006258D01*
X037116Y006227D01*
X037156Y006193D01*
X037193Y006156D01*
X037227Y006116D01*
X037258Y006074D01*
X037286Y006030D01*
X037311Y005984D01*
X037332Y005936D01*
X037349Y005886D01*
X037362Y005836D01*
X037372Y005784D01*
X037378Y005732D01*
X037380Y005680D01*
X037378Y005628D01*
X037372Y005576D01*
X037362Y005524D01*
X037349Y005474D01*
X037332Y005424D01*
X037311Y005376D01*
X037286Y005330D01*
X037258Y005286D01*
X037227Y005244D01*
X037193Y005204D01*
X037156Y005167D01*
X037116Y005133D01*
X037074Y005102D01*
X037030Y005074D01*
X036984Y005049D01*
X036936Y005028D01*
X036886Y005011D01*
X036836Y004998D01*
X036784Y004988D01*
X036732Y004982D01*
X036680Y004980D01*
X036628Y004982D01*
X036576Y004988D01*
X036524Y004998D01*
X036474Y005011D01*
X036424Y005028D01*
X036376Y005049D01*
X036330Y005074D01*
X036286Y005102D01*
X036244Y005133D01*
X036204Y005167D01*
X036167Y005204D01*
X036133Y005244D01*
X036102Y005286D01*
X036074Y005330D01*
X036049Y005376D01*
X036028Y005424D01*
X036011Y005474D01*
X035998Y005524D01*
X035988Y005576D01*
X035982Y005628D01*
X035980Y005680D01*
X036430Y010180D02*
X036180Y010430D01*
X036180Y010930D01*
X036430Y011180D01*
X036180Y011430D01*
X036180Y011930D01*
X036430Y012180D01*
X036180Y012430D01*
X036180Y012930D01*
X036430Y013180D01*
X036180Y013430D01*
X036180Y013930D01*
X036430Y014180D01*
X036930Y014180D01*
X037180Y013930D01*
X037180Y013430D01*
X036930Y013180D01*
X037180Y012930D01*
X037180Y012430D01*
X036930Y012180D01*
X037180Y011930D01*
X037180Y011430D01*
X036930Y011180D01*
X037180Y010930D01*
X037180Y010430D01*
X036930Y010180D01*
X036430Y010180D01*
X036275Y017480D02*
X037080Y017480D01*
X037880Y017830D02*
X037880Y019530D01*
X037080Y019880D02*
X036287Y019880D01*
X035480Y019530D02*
X035480Y017830D01*
X035980Y018680D02*
X035982Y018732D01*
X035988Y018784D01*
X035998Y018836D01*
X036011Y018886D01*
X036028Y018936D01*
X036049Y018984D01*
X036074Y019030D01*
X036102Y019074D01*
X036133Y019116D01*
X036167Y019156D01*
X036204Y019193D01*
X036244Y019227D01*
X036286Y019258D01*
X036330Y019286D01*
X036376Y019311D01*
X036424Y019332D01*
X036474Y019349D01*
X036524Y019362D01*
X036576Y019372D01*
X036628Y019378D01*
X036680Y019380D01*
X036732Y019378D01*
X036784Y019372D01*
X036836Y019362D01*
X036886Y019349D01*
X036936Y019332D01*
X036984Y019311D01*
X037030Y019286D01*
X037074Y019258D01*
X037116Y019227D01*
X037156Y019193D01*
X037193Y019156D01*
X037227Y019116D01*
X037258Y019074D01*
X037286Y019030D01*
X037311Y018984D01*
X037332Y018936D01*
X037349Y018886D01*
X037362Y018836D01*
X037372Y018784D01*
X037378Y018732D01*
X037380Y018680D01*
X037378Y018628D01*
X037372Y018576D01*
X037362Y018524D01*
X037349Y018474D01*
X037332Y018424D01*
X037311Y018376D01*
X037286Y018330D01*
X037258Y018286D01*
X037227Y018244D01*
X037193Y018204D01*
X037156Y018167D01*
X037116Y018133D01*
X037074Y018102D01*
X037030Y018074D01*
X036984Y018049D01*
X036936Y018028D01*
X036886Y018011D01*
X036836Y017998D01*
X036784Y017988D01*
X036732Y017982D01*
X036680Y017980D01*
X036628Y017982D01*
X036576Y017988D01*
X036524Y017998D01*
X036474Y018011D01*
X036424Y018028D01*
X036376Y018049D01*
X036330Y018074D01*
X036286Y018102D01*
X036244Y018133D01*
X036204Y018167D01*
X036167Y018204D01*
X036133Y018244D01*
X036102Y018286D01*
X036074Y018330D01*
X036049Y018376D01*
X036028Y018424D01*
X036011Y018474D01*
X035998Y018524D01*
X035988Y018576D01*
X035982Y018628D01*
X035980Y018680D01*
X034152Y017440D02*
X033208Y017440D01*
X033208Y019920D01*
X034152Y019920D01*
X034152Y017440D01*
X032152Y017440D02*
X031208Y017440D01*
X031208Y019920D01*
X032152Y019920D01*
X032152Y017440D01*
X031152Y017440D02*
X030208Y017440D01*
X030208Y019920D01*
X031152Y019920D01*
X031152Y017440D01*
X009219Y017078D02*
X009219Y016763D01*
X003274Y016763D01*
X003274Y017078D01*
X009219Y017078D01*
X009219Y019519D01*
X003274Y019519D01*
X003274Y017078D01*
X003274Y016519D02*
X003274Y014078D01*
X009219Y014078D01*
X009219Y013763D01*
X003274Y013763D01*
X003274Y014078D01*
X003274Y013519D02*
X003274Y011078D01*
X009219Y011078D01*
X009219Y010763D01*
X003274Y010763D01*
X003274Y011078D01*
X003274Y010519D02*
X003274Y008078D01*
X009219Y008078D01*
X009219Y007763D01*
X003274Y007763D01*
X003274Y008078D01*
X003274Y007519D02*
X003274Y005078D01*
X009219Y005078D01*
X009219Y004763D01*
X003274Y004763D01*
X003274Y005078D01*
X003274Y004519D02*
X003274Y002078D01*
X009219Y002078D01*
X009219Y001763D01*
X003274Y001763D01*
X003274Y002078D01*
X003274Y004519D02*
X009219Y004519D01*
X009219Y002078D01*
X009219Y005078D02*
X009219Y007519D01*
X003274Y007519D01*
X003274Y010519D02*
X009219Y010519D01*
X009219Y008078D01*
X009219Y011078D02*
X009219Y013519D01*
X003274Y013519D01*
X003274Y016519D02*
X009219Y016519D01*
X009219Y014078D01*
X009219Y019763D02*
X003274Y019763D01*
X003274Y020078D01*
X009219Y020078D01*
X009219Y019763D01*
X009219Y020078D02*
X009219Y022519D01*
X003274Y022519D01*
X003274Y020078D01*
D13*
X003735Y019335D02*
X003785Y019335D01*
X003760Y019335D02*
X003760Y019210D01*
X003735Y019185D01*
X003710Y019185D01*
X003685Y019210D01*
X003832Y019185D02*
X003832Y019335D01*
X003907Y019335D01*
X003932Y019310D01*
X003932Y019260D01*
X003907Y019235D01*
X003832Y019235D01*
X003980Y019260D02*
X003980Y019210D01*
X004005Y019185D01*
X004055Y019185D01*
X004080Y019210D01*
X004080Y019235D01*
X004055Y019260D01*
X003980Y019260D01*
X004030Y019310D01*
X004080Y019335D01*
X003980Y022185D02*
X003980Y022210D01*
X004080Y022310D01*
X004080Y022335D01*
X003980Y022335D01*
X003932Y022310D02*
X003932Y022260D01*
X003907Y022235D01*
X003832Y022235D01*
X003832Y022185D02*
X003832Y022335D01*
X003907Y022335D01*
X003932Y022310D01*
X003785Y022335D02*
X003735Y022335D01*
X003760Y022335D02*
X003760Y022210D01*
X003735Y022185D01*
X003710Y022185D01*
X003685Y022210D01*
X003735Y016335D02*
X003785Y016335D01*
X003760Y016335D02*
X003760Y016210D01*
X003735Y016185D01*
X003710Y016185D01*
X003685Y016210D01*
X003832Y016185D02*
X003832Y016335D01*
X003907Y016335D01*
X003932Y016310D01*
X003932Y016260D01*
X003907Y016235D01*
X003832Y016235D01*
X003980Y016210D02*
X004005Y016185D01*
X004055Y016185D01*
X004080Y016210D01*
X004080Y016260D01*
X004055Y016285D01*
X004030Y016285D01*
X003980Y016260D01*
X003980Y016335D01*
X004080Y016335D01*
X004055Y013335D02*
X003980Y013260D01*
X004080Y013260D01*
X004055Y013185D02*
X004055Y013335D01*
X003932Y013310D02*
X003932Y013260D01*
X003907Y013235D01*
X003832Y013235D01*
X003832Y013185D02*
X003832Y013335D01*
X003907Y013335D01*
X003932Y013310D01*
X003785Y013335D02*
X003735Y013335D01*
X003760Y013335D02*
X003760Y013210D01*
X003735Y013185D01*
X003710Y013185D01*
X003685Y013210D01*
X003735Y010335D02*
X003785Y010335D01*
X003760Y010335D02*
X003760Y010210D01*
X003735Y010185D01*
X003710Y010185D01*
X003685Y010210D01*
X003832Y010185D02*
X003832Y010335D01*
X003907Y010335D01*
X003932Y010310D01*
X003932Y010260D01*
X003907Y010235D01*
X003832Y010235D01*
X003980Y010210D02*
X004005Y010185D01*
X004055Y010185D01*
X004080Y010210D01*
X004080Y010235D01*
X004055Y010260D01*
X004030Y010260D01*
X004055Y010260D02*
X004080Y010285D01*
X004080Y010310D01*
X004055Y010335D01*
X004005Y010335D01*
X003980Y010310D01*
X004005Y007335D02*
X003980Y007310D01*
X004005Y007335D02*
X004055Y007335D01*
X004080Y007310D01*
X004080Y007285D01*
X003980Y007185D01*
X004080Y007185D01*
X003932Y007260D02*
X003932Y007310D01*
X003907Y007335D01*
X003832Y007335D01*
X003832Y007185D01*
X003832Y007235D02*
X003907Y007235D01*
X003932Y007260D01*
X003785Y007335D02*
X003735Y007335D01*
X003760Y007335D02*
X003760Y007210D01*
X003735Y007185D01*
X003710Y007185D01*
X003685Y007210D01*
X003735Y004335D02*
X003785Y004335D01*
X003760Y004335D02*
X003760Y004210D01*
X003735Y004185D01*
X003710Y004185D01*
X003685Y004210D01*
X003832Y004185D02*
X003832Y004335D01*
X003907Y004335D01*
X003932Y004310D01*
X003932Y004260D01*
X003907Y004235D01*
X003832Y004235D01*
X003980Y004185D02*
X004080Y004185D01*
X004030Y004185D02*
X004030Y004335D01*
X003980Y004285D01*
D14*
X014180Y002680D02*
X020180Y002680D01*
X020180Y008680D01*
X014180Y008680D01*
X014180Y002680D01*
X014473Y003680D02*
X014475Y003733D01*
X014481Y003785D01*
X014491Y003837D01*
X014504Y003888D01*
X014522Y003938D01*
X014543Y003987D01*
X014568Y004034D01*
X014596Y004078D01*
X014627Y004121D01*
X014662Y004161D01*
X014699Y004198D01*
X014739Y004233D01*
X014782Y004264D01*
X014827Y004292D01*
X014873Y004317D01*
X014922Y004338D01*
X014972Y004356D01*
X015023Y004369D01*
X015075Y004379D01*
X015127Y004385D01*
X015180Y004387D01*
X015233Y004385D01*
X015285Y004379D01*
X015337Y004369D01*
X015388Y004356D01*
X015438Y004338D01*
X015487Y004317D01*
X015534Y004292D01*
X015578Y004264D01*
X015621Y004233D01*
X015661Y004198D01*
X015698Y004161D01*
X015733Y004121D01*
X015764Y004078D01*
X015792Y004033D01*
X015817Y003987D01*
X015838Y003938D01*
X015856Y003888D01*
X015869Y003837D01*
X015879Y003785D01*
X015885Y003733D01*
X015887Y003680D01*
X015885Y003627D01*
X015879Y003575D01*
X015869Y003523D01*
X015856Y003472D01*
X015838Y003422D01*
X015817Y003373D01*
X015792Y003326D01*
X015764Y003282D01*
X015733Y003239D01*
X015698Y003199D01*
X015661Y003162D01*
X015621Y003127D01*
X015578Y003096D01*
X015533Y003068D01*
X015487Y003043D01*
X015438Y003022D01*
X015388Y003004D01*
X015337Y002991D01*
X015285Y002981D01*
X015233Y002975D01*
X015180Y002973D01*
X015127Y002975D01*
X015075Y002981D01*
X015023Y002991D01*
X014972Y003004D01*
X014922Y003022D01*
X014873Y003043D01*
X014826Y003068D01*
X014782Y003096D01*
X014739Y003127D01*
X014699Y003162D01*
X014662Y003199D01*
X014627Y003239D01*
X014596Y003282D01*
X014568Y003327D01*
X014543Y003373D01*
X014522Y003422D01*
X014504Y003472D01*
X014491Y003523D01*
X014481Y003575D01*
X014475Y003627D01*
X014473Y003680D01*
X014473Y007680D02*
X014475Y007733D01*
X014481Y007785D01*
X014491Y007837D01*
X014504Y007888D01*
X014522Y007938D01*
X014543Y007987D01*
X014568Y008034D01*
X014596Y008078D01*
X014627Y008121D01*
X014662Y008161D01*
X014699Y008198D01*
X014739Y008233D01*
X014782Y008264D01*
X014827Y008292D01*
X014873Y008317D01*
X014922Y008338D01*
X014972Y008356D01*
X015023Y008369D01*
X015075Y008379D01*
X015127Y008385D01*
X015180Y008387D01*
X015233Y008385D01*
X015285Y008379D01*
X015337Y008369D01*
X015388Y008356D01*
X015438Y008338D01*
X015487Y008317D01*
X015534Y008292D01*
X015578Y008264D01*
X015621Y008233D01*
X015661Y008198D01*
X015698Y008161D01*
X015733Y008121D01*
X015764Y008078D01*
X015792Y008033D01*
X015817Y007987D01*
X015838Y007938D01*
X015856Y007888D01*
X015869Y007837D01*
X015879Y007785D01*
X015885Y007733D01*
X015887Y007680D01*
X015885Y007627D01*
X015879Y007575D01*
X015869Y007523D01*
X015856Y007472D01*
X015838Y007422D01*
X015817Y007373D01*
X015792Y007326D01*
X015764Y007282D01*
X015733Y007239D01*
X015698Y007199D01*
X015661Y007162D01*
X015621Y007127D01*
X015578Y007096D01*
X015533Y007068D01*
X015487Y007043D01*
X015438Y007022D01*
X015388Y007004D01*
X015337Y006991D01*
X015285Y006981D01*
X015233Y006975D01*
X015180Y006973D01*
X015127Y006975D01*
X015075Y006981D01*
X015023Y006991D01*
X014972Y007004D01*
X014922Y007022D01*
X014873Y007043D01*
X014826Y007068D01*
X014782Y007096D01*
X014739Y007127D01*
X014699Y007162D01*
X014662Y007199D01*
X014627Y007239D01*
X014596Y007282D01*
X014568Y007327D01*
X014543Y007373D01*
X014522Y007422D01*
X014504Y007472D01*
X014491Y007523D01*
X014481Y007575D01*
X014475Y007627D01*
X014473Y007680D01*
X022485Y013175D02*
X022935Y013175D01*
X022710Y013175D02*
X022710Y013475D01*
X022710Y013635D02*
X022710Y013786D01*
X022935Y013635D02*
X022935Y013936D01*
X022935Y014096D02*
X022635Y014096D01*
X022485Y014246D01*
X022635Y014396D01*
X022935Y014396D01*
X022935Y014556D02*
X022485Y014556D01*
X022485Y014781D01*
X022560Y014856D01*
X022710Y014856D01*
X022785Y014781D01*
X022785Y014556D01*
X022785Y014706D02*
X022935Y014856D01*
X022485Y015017D02*
X022485Y015317D01*
X022485Y015167D02*
X022935Y015167D01*
X022710Y014396D02*
X022710Y014096D01*
X022485Y013936D02*
X022485Y013635D01*
X022935Y013635D01*
X022935Y013475D02*
X022485Y013475D01*
X030555Y019400D02*
X030825Y019400D01*
X030825Y019310D02*
X030825Y019491D01*
X030645Y019310D02*
X030555Y019400D01*
X031455Y019366D02*
X031455Y019501D01*
X031500Y019546D01*
X031590Y019546D01*
X031635Y019501D01*
X031635Y019366D01*
X031645Y019310D02*
X031555Y019400D01*
X031825Y019400D01*
X031825Y019310D02*
X031825Y019491D01*
X031725Y019546D02*
X031635Y019456D01*
X031725Y019366D02*
X031455Y019366D01*
X031545Y019660D02*
X031455Y019750D01*
X031725Y019750D01*
X031725Y019660D02*
X031725Y019841D01*
X032455Y019795D02*
X032455Y019705D01*
X032500Y019660D01*
X032500Y019546D02*
X032590Y019546D01*
X032635Y019501D01*
X032635Y019366D01*
X032635Y019456D02*
X032725Y019546D01*
X032725Y019660D02*
X032545Y019841D01*
X032500Y019841D01*
X032455Y019795D01*
X032500Y019546D02*
X032455Y019501D01*
X032455Y019366D01*
X032725Y019366D01*
X032725Y019660D02*
X032725Y019841D01*
X033555Y019400D02*
X033825Y019400D01*
X033825Y019310D02*
X033825Y019491D01*
X033645Y019310D02*
X033555Y019400D01*
X034455Y019366D02*
X034455Y019501D01*
X034500Y019546D01*
X034590Y019546D01*
X034635Y019501D01*
X034635Y019366D01*
X034635Y019456D02*
X034725Y019546D01*
X034680Y019660D02*
X034725Y019705D01*
X034725Y019795D01*
X034680Y019841D01*
X034635Y019841D01*
X034590Y019795D01*
X034590Y019750D01*
X034590Y019795D02*
X034545Y019841D01*
X034500Y019841D01*
X034455Y019795D01*
X034455Y019705D01*
X034500Y019660D01*
X034455Y019366D02*
X034725Y019366D01*
X035155Y018466D02*
X035155Y018165D01*
X035155Y018316D02*
X034705Y018316D01*
X034855Y018165D01*
X034780Y018005D02*
X034705Y017930D01*
X034705Y017780D01*
X034780Y017705D01*
X034855Y017705D01*
X034930Y017780D01*
X034930Y017930D01*
X035005Y018005D01*
X035080Y018005D01*
X035155Y017930D01*
X035155Y017780D01*
X035080Y017705D01*
X033680Y021180D02*
X025280Y021180D01*
X025280Y003180D01*
X033680Y003180D01*
X033680Y021180D01*
X025473Y020180D02*
X025475Y020233D01*
X025481Y020285D01*
X025491Y020337D01*
X025504Y020388D01*
X025522Y020438D01*
X025543Y020487D01*
X025568Y020534D01*
X025596Y020578D01*
X025627Y020621D01*
X025662Y020661D01*
X025699Y020698D01*
X025739Y020733D01*
X025782Y020764D01*
X025827Y020792D01*
X025873Y020817D01*
X025922Y020838D01*
X025972Y020856D01*
X026023Y020869D01*
X026075Y020879D01*
X026127Y020885D01*
X026180Y020887D01*
X026233Y020885D01*
X026285Y020879D01*
X026337Y020869D01*
X026388Y020856D01*
X026438Y020838D01*
X026487Y020817D01*
X026534Y020792D01*
X026578Y020764D01*
X026621Y020733D01*
X026661Y020698D01*
X026698Y020661D01*
X026733Y020621D01*
X026764Y020578D01*
X026792Y020533D01*
X026817Y020487D01*
X026838Y020438D01*
X026856Y020388D01*
X026869Y020337D01*
X026879Y020285D01*
X026885Y020233D01*
X026887Y020180D01*
X026885Y020127D01*
X026879Y020075D01*
X026869Y020023D01*
X026856Y019972D01*
X026838Y019922D01*
X026817Y019873D01*
X026792Y019826D01*
X026764Y019782D01*
X026733Y019739D01*
X026698Y019699D01*
X026661Y019662D01*
X026621Y019627D01*
X026578Y019596D01*
X026533Y019568D01*
X026487Y019543D01*
X026438Y019522D01*
X026388Y019504D01*
X026337Y019491D01*
X026285Y019481D01*
X026233Y019475D01*
X026180Y019473D01*
X026127Y019475D01*
X026075Y019481D01*
X026023Y019491D01*
X025972Y019504D01*
X025922Y019522D01*
X025873Y019543D01*
X025826Y019568D01*
X025782Y019596D01*
X025739Y019627D01*
X025699Y019662D01*
X025662Y019699D01*
X025627Y019739D01*
X025596Y019782D01*
X025568Y019827D01*
X025543Y019873D01*
X025522Y019922D01*
X025504Y019972D01*
X025491Y020023D01*
X025481Y020075D01*
X025475Y020127D01*
X025473Y020180D01*
X035485Y011321D02*
X035485Y011096D01*
X035935Y011096D01*
X035935Y011321D01*
X035860Y011396D01*
X035560Y011396D01*
X035485Y011321D01*
X035485Y010936D02*
X035485Y010635D01*
X035935Y010635D01*
X035935Y010936D01*
X035710Y010786D02*
X035710Y010635D01*
X035935Y010475D02*
X035935Y010175D01*
X035485Y010175D01*
X035155Y005466D02*
X035155Y005165D01*
X034855Y005466D01*
X034780Y005466D01*
X034705Y005391D01*
X034705Y005240D01*
X034780Y005165D01*
X034780Y005005D02*
X034705Y004930D01*
X034705Y004780D01*
X034780Y004705D01*
X034855Y004705D01*
X034930Y004780D01*
X034930Y004930D01*
X035005Y005005D01*
X035080Y005005D01*
X035155Y004930D01*
X035155Y004780D01*
X035080Y004705D01*
X031973Y004180D02*
X031975Y004233D01*
X031981Y004285D01*
X031991Y004337D01*
X032004Y004388D01*
X032022Y004438D01*
X032043Y004487D01*
X032068Y004534D01*
X032096Y004578D01*
X032127Y004621D01*
X032162Y004661D01*
X032199Y004698D01*
X032239Y004733D01*
X032282Y004764D01*
X032327Y004792D01*
X032373Y004817D01*
X032422Y004838D01*
X032472Y004856D01*
X032523Y004869D01*
X032575Y004879D01*
X032627Y004885D01*
X032680Y004887D01*
X032733Y004885D01*
X032785Y004879D01*
X032837Y004869D01*
X032888Y004856D01*
X032938Y004838D01*
X032987Y004817D01*
X033034Y004792D01*
X033078Y004764D01*
X033121Y004733D01*
X033161Y004698D01*
X033198Y004661D01*
X033233Y004621D01*
X033264Y004578D01*
X033292Y004533D01*
X033317Y004487D01*
X033338Y004438D01*
X033356Y004388D01*
X033369Y004337D01*
X033379Y004285D01*
X033385Y004233D01*
X033387Y004180D01*
X033385Y004127D01*
X033379Y004075D01*
X033369Y004023D01*
X033356Y003972D01*
X033338Y003922D01*
X033317Y003873D01*
X033292Y003826D01*
X033264Y003782D01*
X033233Y003739D01*
X033198Y003699D01*
X033161Y003662D01*
X033121Y003627D01*
X033078Y003596D01*
X033033Y003568D01*
X032987Y003543D01*
X032938Y003522D01*
X032888Y003504D01*
X032837Y003491D01*
X032785Y003481D01*
X032733Y003475D01*
X032680Y003473D01*
X032627Y003475D01*
X032575Y003481D01*
X032523Y003491D01*
X032472Y003504D01*
X032422Y003522D01*
X032373Y003543D01*
X032326Y003568D01*
X032282Y003596D01*
X032239Y003627D01*
X032199Y003662D01*
X032162Y003699D01*
X032127Y003739D01*
X032096Y003782D01*
X032068Y003827D01*
X032043Y003873D01*
X032022Y003922D01*
X032004Y003972D01*
X031991Y004023D01*
X031981Y004075D01*
X031975Y004127D01*
X031973Y004180D01*
D15*
X032086Y010700D02*
X032086Y011160D01*
X032240Y011160D02*
X032470Y011160D01*
X032547Y011084D01*
X032547Y010777D01*
X032470Y010700D01*
X032240Y010700D01*
X032240Y011160D01*
X031779Y011160D02*
X032086Y010700D01*
X031779Y010700D02*
X031779Y011160D01*
X031626Y011084D02*
X031549Y011160D01*
X031396Y011160D01*
X031319Y011084D01*
X031319Y010777D01*
X031396Y010700D01*
X031549Y010700D01*
X031626Y010777D01*
X031626Y010930D01*
X031472Y010930D01*
X031856Y011700D02*
X031779Y011777D01*
X031856Y011700D02*
X032009Y011700D01*
X032086Y011777D01*
X032086Y011930D01*
X032009Y012007D01*
X031933Y012007D01*
X031779Y011930D01*
X031779Y012160D01*
X032086Y012160D01*
X032240Y012160D02*
X032240Y011853D01*
X032393Y011700D01*
X032547Y011853D01*
X032547Y012160D01*
X032470Y012700D02*
X032547Y012777D01*
X032547Y012930D01*
X032393Y012930D01*
X032240Y012777D02*
X032316Y012700D01*
X032470Y012700D01*
X032240Y012777D02*
X032240Y013084D01*
X032316Y013160D01*
X032470Y013160D01*
X032547Y013084D01*
X032086Y013160D02*
X031933Y013160D01*
X032009Y013160D02*
X032009Y012700D01*
X031933Y012700D02*
X032086Y012700D01*
X031779Y012777D02*
X031702Y012700D01*
X031549Y012700D01*
X031472Y012777D01*
X031549Y012930D02*
X031472Y013007D01*
X031472Y013084D01*
X031549Y013160D01*
X031702Y013160D01*
X031779Y013084D01*
X031702Y012930D02*
X031779Y012853D01*
X031779Y012777D01*
X031702Y012930D02*
X031549Y012930D01*
X018660Y006118D02*
X018660Y005965D01*
X018583Y005888D01*
X018430Y005888D01*
X018353Y005965D01*
X018353Y006118D01*
X018430Y006195D01*
X018507Y006195D01*
X018507Y005888D01*
X018660Y005735D02*
X018353Y005735D01*
X018660Y005735D02*
X018660Y005504D01*
X018583Y005428D01*
X018353Y005428D01*
X018430Y005195D02*
X018507Y005195D01*
X018507Y004888D01*
X018507Y005195D01*
X018430Y005195D01*
X018353Y005118D01*
X018353Y004965D01*
X018430Y004888D01*
X018583Y004888D01*
X018660Y004965D01*
X018660Y005118D01*
X018660Y004965D01*
X018583Y004888D01*
X018430Y004888D01*
X018353Y004965D01*
X018353Y005118D01*
X018430Y005195D01*
X018430Y004967D02*
X018660Y004967D01*
X018660Y004737D01*
X018583Y004660D01*
X018507Y004737D01*
X018507Y004967D01*
X018430Y004967D02*
X018353Y004891D01*
X018353Y004737D01*
X018353Y004735D02*
X018660Y004735D01*
X018660Y004504D01*
X018583Y004428D01*
X018353Y004428D01*
X018583Y004428D01*
X018660Y004504D01*
X018660Y004735D01*
X018353Y004735D01*
X018353Y004507D02*
X018660Y004353D01*
X018353Y004200D01*
X018200Y004198D02*
X018660Y004198D01*
X018200Y004198D01*
X018200Y004121D01*
X018200Y004198D01*
X018430Y003967D02*
X018660Y003967D01*
X018660Y003737D01*
X018583Y003660D01*
X018507Y003737D01*
X018507Y003967D01*
X018507Y003737D01*
X018583Y003660D01*
X018660Y003737D01*
X018660Y003967D01*
X018430Y003967D01*
X018353Y003891D01*
X018353Y003737D01*
X018353Y003891D01*
X018430Y003967D01*
X018660Y004121D02*
X018660Y004274D01*
X018660Y004121D01*
X018353Y003507D02*
X018660Y003353D01*
X018353Y003200D01*
X018660Y003353D01*
X018353Y003507D01*
X020200Y003621D02*
X020200Y003698D01*
X020660Y003698D01*
X020660Y003774D02*
X020660Y003621D01*
X020660Y003467D02*
X020660Y003237D01*
X020583Y003160D01*
X020507Y003237D01*
X020507Y003467D01*
X020430Y003467D02*
X020660Y003467D01*
X020430Y003467D02*
X020353Y003391D01*
X020353Y003237D01*
X020353Y003007D02*
X020660Y002853D01*
X020353Y002700D01*
X020353Y003928D02*
X020583Y003928D01*
X020660Y004004D01*
X020660Y004235D01*
X020353Y004235D01*
X020430Y004388D02*
X020353Y004465D01*
X020353Y004618D01*
X020430Y004695D01*
X020507Y004695D01*
X020507Y004388D01*
X020583Y004388D02*
X020430Y004388D01*
X020583Y004388D02*
X020660Y004465D01*
X020660Y004618D01*
X018660Y005121D02*
X018660Y005274D01*
X018660Y005198D02*
X018200Y005198D01*
X018200Y005121D01*
X013660Y003928D02*
X013660Y003621D01*
X013660Y003774D02*
X013200Y003774D01*
X013353Y003621D01*
X013276Y003467D02*
X013200Y003391D01*
X013200Y003237D01*
X013276Y003160D01*
X013353Y003160D01*
X013430Y003237D01*
X013430Y003391D01*
X013507Y003467D01*
X013583Y003467D01*
X013660Y003391D01*
X013660Y003237D01*
X013583Y003160D01*
X013583Y003007D02*
X013200Y003007D01*
X013200Y002700D02*
X013583Y002700D01*
X013660Y002777D01*
X013660Y002930D01*
X013583Y003007D01*
X013737Y003314D02*
X013123Y003314D01*
D16*
X012286Y002456D02*
X012039Y002254D01*
X011939Y002305D01*
X011832Y002339D01*
X011800Y002657D01*
X011560Y002657D01*
X011528Y002339D01*
X011421Y002305D01*
X011321Y002254D01*
X011074Y002456D01*
X010904Y002286D01*
X011106Y002039D01*
X011055Y001939D01*
X011021Y001832D01*
X010703Y001800D01*
X010703Y001560D01*
X011021Y001528D01*
X011055Y001421D01*
X011106Y001321D01*
X010904Y001074D01*
X011074Y000904D01*
X011321Y001106D01*
X011421Y001055D01*
X011562Y001396D01*
X011509Y001424D01*
X011462Y001462D01*
X011424Y001509D01*
X011396Y001562D01*
X011378Y001620D01*
X011372Y001680D01*
X011379Y001743D01*
X011398Y001803D01*
X011429Y001858D01*
X011471Y001905D01*
X011521Y001943D01*
X011578Y001970D01*
X011640Y001985D01*
X011703Y001987D01*
X011765Y001976D01*
X011824Y001952D01*
X011876Y001917D01*
X011920Y001872D01*
X011955Y001819D01*
X011977Y001760D01*
X011987Y001697D01*
X011984Y001634D01*
X011968Y001573D01*
X011940Y001516D01*
X011902Y001467D01*
X011853Y001426D01*
X011798Y001396D01*
X011939Y001055D01*
X012039Y001106D01*
X012286Y000904D01*
X012456Y001074D01*
X012254Y001321D01*
X012305Y001421D01*
X012339Y001528D01*
X012657Y001560D01*
X012657Y001800D01*
X012339Y001832D01*
X012305Y001939D01*
X012254Y002039D01*
X012456Y002286D01*
X012286Y002456D01*
X012317Y002425D02*
X012248Y002425D01*
X012177Y002367D02*
X012374Y002367D01*
X012432Y002310D02*
X012107Y002310D01*
X011925Y002310D02*
X011435Y002310D01*
X011531Y002367D02*
X011829Y002367D01*
X011824Y002425D02*
X011536Y002425D01*
X011542Y002482D02*
X011818Y002482D01*
X011812Y002540D02*
X011548Y002540D01*
X011554Y002597D02*
X011806Y002597D01*
X011800Y002655D02*
X011560Y002655D01*
X011253Y002310D02*
X010928Y002310D01*
X010932Y002252D02*
X012428Y002252D01*
X012381Y002194D02*
X010979Y002194D01*
X011026Y002137D02*
X012334Y002137D01*
X012287Y002079D02*
X011073Y002079D01*
X011097Y002022D02*
X012263Y002022D01*
X012292Y001964D02*
X011793Y001964D01*
X011886Y001907D02*
X012316Y001907D01*
X012334Y001849D02*
X011935Y001849D01*
X011965Y001792D02*
X012657Y001792D01*
X012657Y001734D02*
X011981Y001734D01*
X011986Y001676D02*
X012657Y001676D01*
X012657Y001619D02*
X011980Y001619D01*
X011963Y001561D02*
X012657Y001561D01*
X012332Y001504D02*
X011931Y001504D01*
X011877Y001446D02*
X012313Y001446D01*
X012288Y001389D02*
X011801Y001389D01*
X011825Y001331D02*
X012259Y001331D01*
X012293Y001274D02*
X011848Y001274D01*
X011872Y001216D02*
X012340Y001216D01*
X012387Y001158D02*
X011896Y001158D01*
X011920Y001101D02*
X012028Y001101D01*
X012045Y001101D02*
X012434Y001101D01*
X012425Y001043D02*
X012116Y001043D01*
X012186Y000986D02*
X012367Y000986D01*
X012310Y000928D02*
X012257Y000928D01*
X011488Y001216D02*
X011020Y001216D01*
X010973Y001158D02*
X011464Y001158D01*
X011440Y001101D02*
X011332Y001101D01*
X011315Y001101D02*
X010926Y001101D01*
X010935Y001043D02*
X011244Y001043D01*
X011174Y000986D02*
X010993Y000986D01*
X011050Y000928D02*
X011103Y000928D01*
X011067Y001274D02*
X011512Y001274D01*
X011535Y001331D02*
X011101Y001331D01*
X011072Y001389D02*
X011559Y001389D01*
X011482Y001446D02*
X011047Y001446D01*
X011028Y001504D02*
X011429Y001504D01*
X011396Y001561D02*
X010703Y001561D01*
X010703Y001619D02*
X011379Y001619D01*
X011373Y001676D02*
X010703Y001676D01*
X010703Y001734D02*
X011378Y001734D01*
X011394Y001792D02*
X010703Y001792D01*
X011026Y001849D02*
X011424Y001849D01*
X011472Y001907D02*
X011044Y001907D01*
X011068Y001964D02*
X011565Y001964D01*
X011183Y002367D02*
X010986Y002367D01*
X011043Y002425D02*
X011112Y002425D01*
M02*
