%
M48
M72
T01C0.0315
T02C0.0354
T03C0.0394
T04C0.0400
T05C0.0472
T06C0.1181
T07C0.1299
%
T01
X33180Y13180
X33180Y12180
X33180Y11180
X19680Y8180
X19680Y7180
X19680Y6180
X19680Y5180
X19680Y4180
X19680Y3180
T02
X30680Y20680
X31680Y20680
X33680Y20680
X33680Y16680
X31680Y16680
X30680Y16680
T03
X19080Y21680
X20080Y21680
X21080Y21680
X22080Y21680
X23080Y21680
X24080Y21680
X25080Y21680
X26080Y21680
X27080Y21680
X28080Y21680
X29680Y21680
X30680Y21680
X31680Y21680
X32680Y21680
X33680Y21680
X34680Y21680
X35680Y21680
X36680Y21680
X36680Y2680
X35680Y2680
X34680Y2680
X33680Y2680
X32680Y2680
X31680Y2680
X29680Y2680
X28680Y2680
X27680Y2680
X26680Y2680
X25680Y2680
X24680Y2680
X23680Y2680
X22680Y2680
T04
X23680Y15680
X23680Y14680
X23680Y13680
X35790Y17400
X37570Y17400
X36680Y13680
X36680Y12680
X36680Y11680
X36680Y10680
X35790Y6960
X37570Y6960
X37570Y4400
X35790Y4400
X35790Y19960
X37570Y19960
T05
X4180Y21180
X5558Y21180
X6936Y21180
X8314Y21180
X8314Y18180
X6936Y18180
X5558Y18180
X4180Y18180
X4180Y15180
X5558Y15180
X6936Y15180
X8314Y15180
X8314Y12180
X6936Y12180
X5558Y12180
X4180Y12180
X4180Y9180
X5558Y9180
X6936Y9180
X8314Y9180
X8314Y6180
X6936Y6180
X5558Y6180
X4180Y6180
X4180Y3180
X5558Y3180
X6936Y3180
X8314Y3180
T06
X1680Y19680
X1680Y16680
X1680Y3180
X1680Y6680
T07
X17680Y21680
X37680Y15680
X17180Y2680
M30
