G75*
%MOIN*%
%OFA0B0*%
%FSLAX24Y24*%
%IPPOS*%
%LPD*%
%AMOC8*
5,1,8,0,0,1.08239X$1,22.5*
%
%ADD10C,0.0000*%
D10*
X000180Y000180D02*
X000180Y024176D01*
X039050Y024176D01*
X039050Y000180D01*
X000180Y000180D01*
X001089Y003180D02*
X001091Y003228D01*
X001097Y003276D01*
X001107Y003323D01*
X001120Y003369D01*
X001138Y003414D01*
X001158Y003458D01*
X001183Y003500D01*
X001211Y003539D01*
X001241Y003576D01*
X001275Y003610D01*
X001312Y003642D01*
X001350Y003671D01*
X001391Y003696D01*
X001434Y003718D01*
X001479Y003736D01*
X001525Y003750D01*
X001572Y003761D01*
X001620Y003768D01*
X001668Y003771D01*
X001716Y003770D01*
X001764Y003765D01*
X001812Y003756D01*
X001858Y003744D01*
X001903Y003727D01*
X001947Y003707D01*
X001989Y003684D01*
X002029Y003657D01*
X002067Y003627D01*
X002102Y003594D01*
X002134Y003558D01*
X002164Y003520D01*
X002190Y003479D01*
X002212Y003436D01*
X002232Y003392D01*
X002247Y003347D01*
X002259Y003300D01*
X002267Y003252D01*
X002271Y003204D01*
X002271Y003156D01*
X002267Y003108D01*
X002259Y003060D01*
X002247Y003013D01*
X002232Y002968D01*
X002212Y002924D01*
X002190Y002881D01*
X002164Y002840D01*
X002134Y002802D01*
X002102Y002766D01*
X002067Y002733D01*
X002029Y002703D01*
X001989Y002676D01*
X001947Y002653D01*
X001903Y002633D01*
X001858Y002616D01*
X001812Y002604D01*
X001764Y002595D01*
X001716Y002590D01*
X001668Y002589D01*
X001620Y002592D01*
X001572Y002599D01*
X001525Y002610D01*
X001479Y002624D01*
X001434Y002642D01*
X001391Y002664D01*
X001350Y002689D01*
X001312Y002718D01*
X001275Y002750D01*
X001241Y002784D01*
X001211Y002821D01*
X001183Y002860D01*
X001158Y002902D01*
X001138Y002946D01*
X001120Y002991D01*
X001107Y003037D01*
X001097Y003084D01*
X001091Y003132D01*
X001089Y003180D01*
X001089Y006680D02*
X001091Y006728D01*
X001097Y006776D01*
X001107Y006823D01*
X001120Y006869D01*
X001138Y006914D01*
X001158Y006958D01*
X001183Y007000D01*
X001211Y007039D01*
X001241Y007076D01*
X001275Y007110D01*
X001312Y007142D01*
X001350Y007171D01*
X001391Y007196D01*
X001434Y007218D01*
X001479Y007236D01*
X001525Y007250D01*
X001572Y007261D01*
X001620Y007268D01*
X001668Y007271D01*
X001716Y007270D01*
X001764Y007265D01*
X001812Y007256D01*
X001858Y007244D01*
X001903Y007227D01*
X001947Y007207D01*
X001989Y007184D01*
X002029Y007157D01*
X002067Y007127D01*
X002102Y007094D01*
X002134Y007058D01*
X002164Y007020D01*
X002190Y006979D01*
X002212Y006936D01*
X002232Y006892D01*
X002247Y006847D01*
X002259Y006800D01*
X002267Y006752D01*
X002271Y006704D01*
X002271Y006656D01*
X002267Y006608D01*
X002259Y006560D01*
X002247Y006513D01*
X002232Y006468D01*
X002212Y006424D01*
X002190Y006381D01*
X002164Y006340D01*
X002134Y006302D01*
X002102Y006266D01*
X002067Y006233D01*
X002029Y006203D01*
X001989Y006176D01*
X001947Y006153D01*
X001903Y006133D01*
X001858Y006116D01*
X001812Y006104D01*
X001764Y006095D01*
X001716Y006090D01*
X001668Y006089D01*
X001620Y006092D01*
X001572Y006099D01*
X001525Y006110D01*
X001479Y006124D01*
X001434Y006142D01*
X001391Y006164D01*
X001350Y006189D01*
X001312Y006218D01*
X001275Y006250D01*
X001241Y006284D01*
X001211Y006321D01*
X001183Y006360D01*
X001158Y006402D01*
X001138Y006446D01*
X001120Y006491D01*
X001107Y006537D01*
X001097Y006584D01*
X001091Y006632D01*
X001089Y006680D01*
X001089Y014180D02*
X001091Y014228D01*
X001097Y014276D01*
X001107Y014323D01*
X001120Y014369D01*
X001138Y014414D01*
X001158Y014458D01*
X001183Y014500D01*
X001211Y014539D01*
X001241Y014576D01*
X001275Y014610D01*
X001312Y014642D01*
X001350Y014671D01*
X001391Y014696D01*
X001434Y014718D01*
X001479Y014736D01*
X001525Y014750D01*
X001572Y014761D01*
X001620Y014768D01*
X001668Y014771D01*
X001716Y014770D01*
X001764Y014765D01*
X001812Y014756D01*
X001858Y014744D01*
X001903Y014727D01*
X001947Y014707D01*
X001989Y014684D01*
X002029Y014657D01*
X002067Y014627D01*
X002102Y014594D01*
X002134Y014558D01*
X002164Y014520D01*
X002190Y014479D01*
X002212Y014436D01*
X002232Y014392D01*
X002247Y014347D01*
X002259Y014300D01*
X002267Y014252D01*
X002271Y014204D01*
X002271Y014156D01*
X002267Y014108D01*
X002259Y014060D01*
X002247Y014013D01*
X002232Y013968D01*
X002212Y013924D01*
X002190Y013881D01*
X002164Y013840D01*
X002134Y013802D01*
X002102Y013766D01*
X002067Y013733D01*
X002029Y013703D01*
X001989Y013676D01*
X001947Y013653D01*
X001903Y013633D01*
X001858Y013616D01*
X001812Y013604D01*
X001764Y013595D01*
X001716Y013590D01*
X001668Y013589D01*
X001620Y013592D01*
X001572Y013599D01*
X001525Y013610D01*
X001479Y013624D01*
X001434Y013642D01*
X001391Y013664D01*
X001350Y013689D01*
X001312Y013718D01*
X001275Y013750D01*
X001241Y013784D01*
X001211Y013821D01*
X001183Y013860D01*
X001158Y013902D01*
X001138Y013946D01*
X001120Y013991D01*
X001107Y014037D01*
X001097Y014084D01*
X001091Y014132D01*
X001089Y014180D01*
X001089Y019680D02*
X001091Y019728D01*
X001097Y019776D01*
X001107Y019823D01*
X001120Y019869D01*
X001138Y019914D01*
X001158Y019958D01*
X001183Y020000D01*
X001211Y020039D01*
X001241Y020076D01*
X001275Y020110D01*
X001312Y020142D01*
X001350Y020171D01*
X001391Y020196D01*
X001434Y020218D01*
X001479Y020236D01*
X001525Y020250D01*
X001572Y020261D01*
X001620Y020268D01*
X001668Y020271D01*
X001716Y020270D01*
X001764Y020265D01*
X001812Y020256D01*
X001858Y020244D01*
X001903Y020227D01*
X001947Y020207D01*
X001989Y020184D01*
X002029Y020157D01*
X002067Y020127D01*
X002102Y020094D01*
X002134Y020058D01*
X002164Y020020D01*
X002190Y019979D01*
X002212Y019936D01*
X002232Y019892D01*
X002247Y019847D01*
X002259Y019800D01*
X002267Y019752D01*
X002271Y019704D01*
X002271Y019656D01*
X002267Y019608D01*
X002259Y019560D01*
X002247Y019513D01*
X002232Y019468D01*
X002212Y019424D01*
X002190Y019381D01*
X002164Y019340D01*
X002134Y019302D01*
X002102Y019266D01*
X002067Y019233D01*
X002029Y019203D01*
X001989Y019176D01*
X001947Y019153D01*
X001903Y019133D01*
X001858Y019116D01*
X001812Y019104D01*
X001764Y019095D01*
X001716Y019090D01*
X001668Y019089D01*
X001620Y019092D01*
X001572Y019099D01*
X001525Y019110D01*
X001479Y019124D01*
X001434Y019142D01*
X001391Y019164D01*
X001350Y019189D01*
X001312Y019218D01*
X001275Y019250D01*
X001241Y019284D01*
X001211Y019321D01*
X001183Y019360D01*
X001158Y019402D01*
X001138Y019446D01*
X001120Y019491D01*
X001107Y019537D01*
X001097Y019584D01*
X001091Y019632D01*
X001089Y019680D01*
X017030Y021680D02*
X017032Y021730D01*
X017038Y021780D01*
X017048Y021830D01*
X017061Y021878D01*
X017078Y021926D01*
X017099Y021972D01*
X017123Y022016D01*
X017151Y022058D01*
X017182Y022098D01*
X017216Y022135D01*
X017253Y022170D01*
X017292Y022201D01*
X017333Y022230D01*
X017377Y022255D01*
X017423Y022277D01*
X017470Y022295D01*
X017518Y022309D01*
X017567Y022320D01*
X017617Y022327D01*
X017667Y022330D01*
X017718Y022329D01*
X017768Y022324D01*
X017818Y022315D01*
X017866Y022303D01*
X017914Y022286D01*
X017960Y022266D01*
X018005Y022243D01*
X018048Y022216D01*
X018088Y022186D01*
X018126Y022153D01*
X018161Y022117D01*
X018194Y022078D01*
X018223Y022037D01*
X018249Y021994D01*
X018272Y021949D01*
X018291Y021902D01*
X018306Y021854D01*
X018318Y021805D01*
X018326Y021755D01*
X018330Y021705D01*
X018330Y021655D01*
X018326Y021605D01*
X018318Y021555D01*
X018306Y021506D01*
X018291Y021458D01*
X018272Y021411D01*
X018249Y021366D01*
X018223Y021323D01*
X018194Y021282D01*
X018161Y021243D01*
X018126Y021207D01*
X018088Y021174D01*
X018048Y021144D01*
X018005Y021117D01*
X017960Y021094D01*
X017914Y021074D01*
X017866Y021057D01*
X017818Y021045D01*
X017768Y021036D01*
X017718Y021031D01*
X017667Y021030D01*
X017617Y021033D01*
X017567Y021040D01*
X017518Y021051D01*
X017470Y021065D01*
X017423Y021083D01*
X017377Y021105D01*
X017333Y021130D01*
X017292Y021159D01*
X017253Y021190D01*
X017216Y021225D01*
X017182Y021262D01*
X017151Y021302D01*
X017123Y021344D01*
X017099Y021388D01*
X017078Y021434D01*
X017061Y021482D01*
X017048Y021530D01*
X017038Y021580D01*
X017032Y021630D01*
X017030Y021680D01*
X023550Y020180D02*
X023552Y020230D01*
X023558Y020280D01*
X023568Y020329D01*
X023582Y020377D01*
X023599Y020424D01*
X023620Y020469D01*
X023645Y020513D01*
X023673Y020554D01*
X023705Y020593D01*
X023739Y020630D01*
X023776Y020664D01*
X023816Y020694D01*
X023858Y020721D01*
X023902Y020745D01*
X023948Y020766D01*
X023995Y020782D01*
X024043Y020795D01*
X024093Y020804D01*
X024142Y020809D01*
X024193Y020810D01*
X024243Y020807D01*
X024292Y020800D01*
X024341Y020789D01*
X024389Y020774D01*
X024435Y020756D01*
X024480Y020734D01*
X024523Y020708D01*
X024564Y020679D01*
X024603Y020647D01*
X024639Y020612D01*
X024671Y020574D01*
X024701Y020534D01*
X024728Y020491D01*
X024751Y020447D01*
X024770Y020401D01*
X024786Y020353D01*
X024798Y020304D01*
X024806Y020255D01*
X024810Y020205D01*
X024810Y020155D01*
X024806Y020105D01*
X024798Y020056D01*
X024786Y020007D01*
X024770Y019959D01*
X024751Y019913D01*
X024728Y019869D01*
X024701Y019826D01*
X024671Y019786D01*
X024639Y019748D01*
X024603Y019713D01*
X024564Y019681D01*
X024523Y019652D01*
X024480Y019626D01*
X024435Y019604D01*
X024389Y019586D01*
X024341Y019571D01*
X024292Y019560D01*
X024243Y019553D01*
X024193Y019550D01*
X024142Y019551D01*
X024093Y019556D01*
X024043Y019565D01*
X023995Y019578D01*
X023948Y019594D01*
X023902Y019615D01*
X023858Y019639D01*
X023816Y019666D01*
X023776Y019696D01*
X023739Y019730D01*
X023705Y019767D01*
X023673Y019806D01*
X023645Y019847D01*
X023620Y019891D01*
X023599Y019936D01*
X023582Y019983D01*
X023568Y020031D01*
X023558Y020080D01*
X023552Y020130D01*
X023550Y020180D01*
X037030Y015680D02*
X037032Y015730D01*
X037038Y015780D01*
X037048Y015830D01*
X037061Y015878D01*
X037078Y015926D01*
X037099Y015972D01*
X037123Y016016D01*
X037151Y016058D01*
X037182Y016098D01*
X037216Y016135D01*
X037253Y016170D01*
X037292Y016201D01*
X037333Y016230D01*
X037377Y016255D01*
X037423Y016277D01*
X037470Y016295D01*
X037518Y016309D01*
X037567Y016320D01*
X037617Y016327D01*
X037667Y016330D01*
X037718Y016329D01*
X037768Y016324D01*
X037818Y016315D01*
X037866Y016303D01*
X037914Y016286D01*
X037960Y016266D01*
X038005Y016243D01*
X038048Y016216D01*
X038088Y016186D01*
X038126Y016153D01*
X038161Y016117D01*
X038194Y016078D01*
X038223Y016037D01*
X038249Y015994D01*
X038272Y015949D01*
X038291Y015902D01*
X038306Y015854D01*
X038318Y015805D01*
X038326Y015755D01*
X038330Y015705D01*
X038330Y015655D01*
X038326Y015605D01*
X038318Y015555D01*
X038306Y015506D01*
X038291Y015458D01*
X038272Y015411D01*
X038249Y015366D01*
X038223Y015323D01*
X038194Y015282D01*
X038161Y015243D01*
X038126Y015207D01*
X038088Y015174D01*
X038048Y015144D01*
X038005Y015117D01*
X037960Y015094D01*
X037914Y015074D01*
X037866Y015057D01*
X037818Y015045D01*
X037768Y015036D01*
X037718Y015031D01*
X037667Y015030D01*
X037617Y015033D01*
X037567Y015040D01*
X037518Y015051D01*
X037470Y015065D01*
X037423Y015083D01*
X037377Y015105D01*
X037333Y015130D01*
X037292Y015159D01*
X037253Y015190D01*
X037216Y015225D01*
X037182Y015262D01*
X037151Y015302D01*
X037123Y015344D01*
X037099Y015388D01*
X037078Y015434D01*
X037061Y015482D01*
X037048Y015530D01*
X037038Y015580D01*
X037032Y015630D01*
X037030Y015680D01*
X030050Y004180D02*
X030052Y004230D01*
X030058Y004280D01*
X030068Y004329D01*
X030082Y004377D01*
X030099Y004424D01*
X030120Y004469D01*
X030145Y004513D01*
X030173Y004554D01*
X030205Y004593D01*
X030239Y004630D01*
X030276Y004664D01*
X030316Y004694D01*
X030358Y004721D01*
X030402Y004745D01*
X030448Y004766D01*
X030495Y004782D01*
X030543Y004795D01*
X030593Y004804D01*
X030642Y004809D01*
X030693Y004810D01*
X030743Y004807D01*
X030792Y004800D01*
X030841Y004789D01*
X030889Y004774D01*
X030935Y004756D01*
X030980Y004734D01*
X031023Y004708D01*
X031064Y004679D01*
X031103Y004647D01*
X031139Y004612D01*
X031171Y004574D01*
X031201Y004534D01*
X031228Y004491D01*
X031251Y004447D01*
X031270Y004401D01*
X031286Y004353D01*
X031298Y004304D01*
X031306Y004255D01*
X031310Y004205D01*
X031310Y004155D01*
X031306Y004105D01*
X031298Y004056D01*
X031286Y004007D01*
X031270Y003959D01*
X031251Y003913D01*
X031228Y003869D01*
X031201Y003826D01*
X031171Y003786D01*
X031139Y003748D01*
X031103Y003713D01*
X031064Y003681D01*
X031023Y003652D01*
X030980Y003626D01*
X030935Y003604D01*
X030889Y003586D01*
X030841Y003571D01*
X030792Y003560D01*
X030743Y003553D01*
X030693Y003550D01*
X030642Y003551D01*
X030593Y003556D01*
X030543Y003565D01*
X030495Y003578D01*
X030448Y003594D01*
X030402Y003615D01*
X030358Y003639D01*
X030316Y003666D01*
X030276Y003696D01*
X030239Y003730D01*
X030205Y003767D01*
X030173Y003806D01*
X030145Y003847D01*
X030120Y003891D01*
X030099Y003936D01*
X030082Y003983D01*
X030068Y004031D01*
X030058Y004080D01*
X030052Y004130D01*
X030050Y004180D01*
X016530Y002680D02*
X016532Y002730D01*
X016538Y002780D01*
X016548Y002830D01*
X016561Y002878D01*
X016578Y002926D01*
X016599Y002972D01*
X016623Y003016D01*
X016651Y003058D01*
X016682Y003098D01*
X016716Y003135D01*
X016753Y003170D01*
X016792Y003201D01*
X016833Y003230D01*
X016877Y003255D01*
X016923Y003277D01*
X016970Y003295D01*
X017018Y003309D01*
X017067Y003320D01*
X017117Y003327D01*
X017167Y003330D01*
X017218Y003329D01*
X017268Y003324D01*
X017318Y003315D01*
X017366Y003303D01*
X017414Y003286D01*
X017460Y003266D01*
X017505Y003243D01*
X017548Y003216D01*
X017588Y003186D01*
X017626Y003153D01*
X017661Y003117D01*
X017694Y003078D01*
X017723Y003037D01*
X017749Y002994D01*
X017772Y002949D01*
X017791Y002902D01*
X017806Y002854D01*
X017818Y002805D01*
X017826Y002755D01*
X017830Y002705D01*
X017830Y002655D01*
X017826Y002605D01*
X017818Y002555D01*
X017806Y002506D01*
X017791Y002458D01*
X017772Y002411D01*
X017749Y002366D01*
X017723Y002323D01*
X017694Y002282D01*
X017661Y002243D01*
X017626Y002207D01*
X017588Y002174D01*
X017548Y002144D01*
X017505Y002117D01*
X017460Y002094D01*
X017414Y002074D01*
X017366Y002057D01*
X017318Y002045D01*
X017268Y002036D01*
X017218Y002031D01*
X017167Y002030D01*
X017117Y002033D01*
X017067Y002040D01*
X017018Y002051D01*
X016970Y002065D01*
X016923Y002083D01*
X016877Y002105D01*
X016833Y002130D01*
X016792Y002159D01*
X016753Y002190D01*
X016716Y002225D01*
X016682Y002262D01*
X016651Y002302D01*
X016623Y002344D01*
X016599Y002388D01*
X016578Y002434D01*
X016561Y002482D01*
X016548Y002530D01*
X016538Y002580D01*
X016532Y002630D01*
X016530Y002680D01*
M02*
