G75*
%MOIN*%
%OFA0B0*%
%FSLAX24Y24*%
%IPPOS*%
%LPD*%
%AMOC8*
5,1,8,0,0,1.08239X$1,22.5*
%
%ADD10C,0.0000*%
%ADD11C,0.0030*%
%ADD12C,0.0080*%
%ADD13C,0.0050*%
%ADD14C,0.0040*%
%ADD15C,0.0059*%
D10*
X000180Y000180D02*
X000180Y024176D01*
X039050Y024176D01*
X039050Y000180D01*
X000180Y000180D01*
X001089Y003180D02*
X001091Y003228D01*
X001097Y003276D01*
X001107Y003323D01*
X001120Y003369D01*
X001138Y003414D01*
X001158Y003458D01*
X001183Y003500D01*
X001211Y003539D01*
X001241Y003576D01*
X001275Y003610D01*
X001312Y003642D01*
X001350Y003671D01*
X001391Y003696D01*
X001434Y003718D01*
X001479Y003736D01*
X001525Y003750D01*
X001572Y003761D01*
X001620Y003768D01*
X001668Y003771D01*
X001716Y003770D01*
X001764Y003765D01*
X001812Y003756D01*
X001858Y003744D01*
X001903Y003727D01*
X001947Y003707D01*
X001989Y003684D01*
X002029Y003657D01*
X002067Y003627D01*
X002102Y003594D01*
X002134Y003558D01*
X002164Y003520D01*
X002190Y003479D01*
X002212Y003436D01*
X002232Y003392D01*
X002247Y003347D01*
X002259Y003300D01*
X002267Y003252D01*
X002271Y003204D01*
X002271Y003156D01*
X002267Y003108D01*
X002259Y003060D01*
X002247Y003013D01*
X002232Y002968D01*
X002212Y002924D01*
X002190Y002881D01*
X002164Y002840D01*
X002134Y002802D01*
X002102Y002766D01*
X002067Y002733D01*
X002029Y002703D01*
X001989Y002676D01*
X001947Y002653D01*
X001903Y002633D01*
X001858Y002616D01*
X001812Y002604D01*
X001764Y002595D01*
X001716Y002590D01*
X001668Y002589D01*
X001620Y002592D01*
X001572Y002599D01*
X001525Y002610D01*
X001479Y002624D01*
X001434Y002642D01*
X001391Y002664D01*
X001350Y002689D01*
X001312Y002718D01*
X001275Y002750D01*
X001241Y002784D01*
X001211Y002821D01*
X001183Y002860D01*
X001158Y002902D01*
X001138Y002946D01*
X001120Y002991D01*
X001107Y003037D01*
X001097Y003084D01*
X001091Y003132D01*
X001089Y003180D01*
X001089Y006680D02*
X001091Y006728D01*
X001097Y006776D01*
X001107Y006823D01*
X001120Y006869D01*
X001138Y006914D01*
X001158Y006958D01*
X001183Y007000D01*
X001211Y007039D01*
X001241Y007076D01*
X001275Y007110D01*
X001312Y007142D01*
X001350Y007171D01*
X001391Y007196D01*
X001434Y007218D01*
X001479Y007236D01*
X001525Y007250D01*
X001572Y007261D01*
X001620Y007268D01*
X001668Y007271D01*
X001716Y007270D01*
X001764Y007265D01*
X001812Y007256D01*
X001858Y007244D01*
X001903Y007227D01*
X001947Y007207D01*
X001989Y007184D01*
X002029Y007157D01*
X002067Y007127D01*
X002102Y007094D01*
X002134Y007058D01*
X002164Y007020D01*
X002190Y006979D01*
X002212Y006936D01*
X002232Y006892D01*
X002247Y006847D01*
X002259Y006800D01*
X002267Y006752D01*
X002271Y006704D01*
X002271Y006656D01*
X002267Y006608D01*
X002259Y006560D01*
X002247Y006513D01*
X002232Y006468D01*
X002212Y006424D01*
X002190Y006381D01*
X002164Y006340D01*
X002134Y006302D01*
X002102Y006266D01*
X002067Y006233D01*
X002029Y006203D01*
X001989Y006176D01*
X001947Y006153D01*
X001903Y006133D01*
X001858Y006116D01*
X001812Y006104D01*
X001764Y006095D01*
X001716Y006090D01*
X001668Y006089D01*
X001620Y006092D01*
X001572Y006099D01*
X001525Y006110D01*
X001479Y006124D01*
X001434Y006142D01*
X001391Y006164D01*
X001350Y006189D01*
X001312Y006218D01*
X001275Y006250D01*
X001241Y006284D01*
X001211Y006321D01*
X001183Y006360D01*
X001158Y006402D01*
X001138Y006446D01*
X001120Y006491D01*
X001107Y006537D01*
X001097Y006584D01*
X001091Y006632D01*
X001089Y006680D01*
X011680Y001680D02*
X011680Y022680D01*
X037080Y022680D01*
X037680Y022080D01*
X037680Y017580D01*
X038680Y016580D01*
X038680Y003680D01*
X037680Y002680D01*
X037680Y001680D01*
X011680Y001680D01*
X016530Y002680D02*
X016532Y002730D01*
X016538Y002780D01*
X016548Y002830D01*
X016561Y002878D01*
X016578Y002926D01*
X016599Y002972D01*
X016623Y003016D01*
X016651Y003058D01*
X016682Y003098D01*
X016716Y003135D01*
X016753Y003170D01*
X016792Y003201D01*
X016833Y003230D01*
X016877Y003255D01*
X016923Y003277D01*
X016970Y003295D01*
X017018Y003309D01*
X017067Y003320D01*
X017117Y003327D01*
X017167Y003330D01*
X017218Y003329D01*
X017268Y003324D01*
X017318Y003315D01*
X017366Y003303D01*
X017414Y003286D01*
X017460Y003266D01*
X017505Y003243D01*
X017548Y003216D01*
X017588Y003186D01*
X017626Y003153D01*
X017661Y003117D01*
X017694Y003078D01*
X017723Y003037D01*
X017749Y002994D01*
X017772Y002949D01*
X017791Y002902D01*
X017806Y002854D01*
X017818Y002805D01*
X017826Y002755D01*
X017830Y002705D01*
X017830Y002655D01*
X017826Y002605D01*
X017818Y002555D01*
X017806Y002506D01*
X017791Y002458D01*
X017772Y002411D01*
X017749Y002366D01*
X017723Y002323D01*
X017694Y002282D01*
X017661Y002243D01*
X017626Y002207D01*
X017588Y002174D01*
X017548Y002144D01*
X017505Y002117D01*
X017460Y002094D01*
X017414Y002074D01*
X017366Y002057D01*
X017318Y002045D01*
X017268Y002036D01*
X017218Y002031D01*
X017167Y002030D01*
X017117Y002033D01*
X017067Y002040D01*
X017018Y002051D01*
X016970Y002065D01*
X016923Y002083D01*
X016877Y002105D01*
X016833Y002130D01*
X016792Y002159D01*
X016753Y002190D01*
X016716Y002225D01*
X016682Y002262D01*
X016651Y002302D01*
X016623Y002344D01*
X016599Y002388D01*
X016578Y002434D01*
X016561Y002482D01*
X016548Y002530D01*
X016538Y002580D01*
X016532Y002630D01*
X016530Y002680D01*
X030050Y004180D02*
X030052Y004230D01*
X030058Y004280D01*
X030068Y004329D01*
X030082Y004377D01*
X030099Y004424D01*
X030120Y004469D01*
X030145Y004513D01*
X030173Y004554D01*
X030205Y004593D01*
X030239Y004630D01*
X030276Y004664D01*
X030316Y004694D01*
X030358Y004721D01*
X030402Y004745D01*
X030448Y004766D01*
X030495Y004782D01*
X030543Y004795D01*
X030593Y004804D01*
X030642Y004809D01*
X030693Y004810D01*
X030743Y004807D01*
X030792Y004800D01*
X030841Y004789D01*
X030889Y004774D01*
X030935Y004756D01*
X030980Y004734D01*
X031023Y004708D01*
X031064Y004679D01*
X031103Y004647D01*
X031139Y004612D01*
X031171Y004574D01*
X031201Y004534D01*
X031228Y004491D01*
X031251Y004447D01*
X031270Y004401D01*
X031286Y004353D01*
X031298Y004304D01*
X031306Y004255D01*
X031310Y004205D01*
X031310Y004155D01*
X031306Y004105D01*
X031298Y004056D01*
X031286Y004007D01*
X031270Y003959D01*
X031251Y003913D01*
X031228Y003869D01*
X031201Y003826D01*
X031171Y003786D01*
X031139Y003748D01*
X031103Y003713D01*
X031064Y003681D01*
X031023Y003652D01*
X030980Y003626D01*
X030935Y003604D01*
X030889Y003586D01*
X030841Y003571D01*
X030792Y003560D01*
X030743Y003553D01*
X030693Y003550D01*
X030642Y003551D01*
X030593Y003556D01*
X030543Y003565D01*
X030495Y003578D01*
X030448Y003594D01*
X030402Y003615D01*
X030358Y003639D01*
X030316Y003666D01*
X030276Y003696D01*
X030239Y003730D01*
X030205Y003767D01*
X030173Y003806D01*
X030145Y003847D01*
X030120Y003891D01*
X030099Y003936D01*
X030082Y003983D01*
X030068Y004031D01*
X030058Y004080D01*
X030052Y004130D01*
X030050Y004180D01*
X037030Y015680D02*
X037032Y015730D01*
X037038Y015780D01*
X037048Y015830D01*
X037061Y015878D01*
X037078Y015926D01*
X037099Y015972D01*
X037123Y016016D01*
X037151Y016058D01*
X037182Y016098D01*
X037216Y016135D01*
X037253Y016170D01*
X037292Y016201D01*
X037333Y016230D01*
X037377Y016255D01*
X037423Y016277D01*
X037470Y016295D01*
X037518Y016309D01*
X037567Y016320D01*
X037617Y016327D01*
X037667Y016330D01*
X037718Y016329D01*
X037768Y016324D01*
X037818Y016315D01*
X037866Y016303D01*
X037914Y016286D01*
X037960Y016266D01*
X038005Y016243D01*
X038048Y016216D01*
X038088Y016186D01*
X038126Y016153D01*
X038161Y016117D01*
X038194Y016078D01*
X038223Y016037D01*
X038249Y015994D01*
X038272Y015949D01*
X038291Y015902D01*
X038306Y015854D01*
X038318Y015805D01*
X038326Y015755D01*
X038330Y015705D01*
X038330Y015655D01*
X038326Y015605D01*
X038318Y015555D01*
X038306Y015506D01*
X038291Y015458D01*
X038272Y015411D01*
X038249Y015366D01*
X038223Y015323D01*
X038194Y015282D01*
X038161Y015243D01*
X038126Y015207D01*
X038088Y015174D01*
X038048Y015144D01*
X038005Y015117D01*
X037960Y015094D01*
X037914Y015074D01*
X037866Y015057D01*
X037818Y015045D01*
X037768Y015036D01*
X037718Y015031D01*
X037667Y015030D01*
X037617Y015033D01*
X037567Y015040D01*
X037518Y015051D01*
X037470Y015065D01*
X037423Y015083D01*
X037377Y015105D01*
X037333Y015130D01*
X037292Y015159D01*
X037253Y015190D01*
X037216Y015225D01*
X037182Y015262D01*
X037151Y015302D01*
X037123Y015344D01*
X037099Y015388D01*
X037078Y015434D01*
X037061Y015482D01*
X037048Y015530D01*
X037038Y015580D01*
X037032Y015630D01*
X037030Y015680D01*
X023550Y020180D02*
X023552Y020230D01*
X023558Y020280D01*
X023568Y020329D01*
X023582Y020377D01*
X023599Y020424D01*
X023620Y020469D01*
X023645Y020513D01*
X023673Y020554D01*
X023705Y020593D01*
X023739Y020630D01*
X023776Y020664D01*
X023816Y020694D01*
X023858Y020721D01*
X023902Y020745D01*
X023948Y020766D01*
X023995Y020782D01*
X024043Y020795D01*
X024093Y020804D01*
X024142Y020809D01*
X024193Y020810D01*
X024243Y020807D01*
X024292Y020800D01*
X024341Y020789D01*
X024389Y020774D01*
X024435Y020756D01*
X024480Y020734D01*
X024523Y020708D01*
X024564Y020679D01*
X024603Y020647D01*
X024639Y020612D01*
X024671Y020574D01*
X024701Y020534D01*
X024728Y020491D01*
X024751Y020447D01*
X024770Y020401D01*
X024786Y020353D01*
X024798Y020304D01*
X024806Y020255D01*
X024810Y020205D01*
X024810Y020155D01*
X024806Y020105D01*
X024798Y020056D01*
X024786Y020007D01*
X024770Y019959D01*
X024751Y019913D01*
X024728Y019869D01*
X024701Y019826D01*
X024671Y019786D01*
X024639Y019748D01*
X024603Y019713D01*
X024564Y019681D01*
X024523Y019652D01*
X024480Y019626D01*
X024435Y019604D01*
X024389Y019586D01*
X024341Y019571D01*
X024292Y019560D01*
X024243Y019553D01*
X024193Y019550D01*
X024142Y019551D01*
X024093Y019556D01*
X024043Y019565D01*
X023995Y019578D01*
X023948Y019594D01*
X023902Y019615D01*
X023858Y019639D01*
X023816Y019666D01*
X023776Y019696D01*
X023739Y019730D01*
X023705Y019767D01*
X023673Y019806D01*
X023645Y019847D01*
X023620Y019891D01*
X023599Y019936D01*
X023582Y019983D01*
X023568Y020031D01*
X023558Y020080D01*
X023552Y020130D01*
X023550Y020180D01*
X017030Y021680D02*
X017032Y021730D01*
X017038Y021780D01*
X017048Y021830D01*
X017061Y021878D01*
X017078Y021926D01*
X017099Y021972D01*
X017123Y022016D01*
X017151Y022058D01*
X017182Y022098D01*
X017216Y022135D01*
X017253Y022170D01*
X017292Y022201D01*
X017333Y022230D01*
X017377Y022255D01*
X017423Y022277D01*
X017470Y022295D01*
X017518Y022309D01*
X017567Y022320D01*
X017617Y022327D01*
X017667Y022330D01*
X017718Y022329D01*
X017768Y022324D01*
X017818Y022315D01*
X017866Y022303D01*
X017914Y022286D01*
X017960Y022266D01*
X018005Y022243D01*
X018048Y022216D01*
X018088Y022186D01*
X018126Y022153D01*
X018161Y022117D01*
X018194Y022078D01*
X018223Y022037D01*
X018249Y021994D01*
X018272Y021949D01*
X018291Y021902D01*
X018306Y021854D01*
X018318Y021805D01*
X018326Y021755D01*
X018330Y021705D01*
X018330Y021655D01*
X018326Y021605D01*
X018318Y021555D01*
X018306Y021506D01*
X018291Y021458D01*
X018272Y021411D01*
X018249Y021366D01*
X018223Y021323D01*
X018194Y021282D01*
X018161Y021243D01*
X018126Y021207D01*
X018088Y021174D01*
X018048Y021144D01*
X018005Y021117D01*
X017960Y021094D01*
X017914Y021074D01*
X017866Y021057D01*
X017818Y021045D01*
X017768Y021036D01*
X017718Y021031D01*
X017667Y021030D01*
X017617Y021033D01*
X017567Y021040D01*
X017518Y021051D01*
X017470Y021065D01*
X017423Y021083D01*
X017377Y021105D01*
X017333Y021130D01*
X017292Y021159D01*
X017253Y021190D01*
X017216Y021225D01*
X017182Y021262D01*
X017151Y021302D01*
X017123Y021344D01*
X017099Y021388D01*
X017078Y021434D01*
X017061Y021482D01*
X017048Y021530D01*
X017038Y021580D01*
X017032Y021630D01*
X017030Y021680D01*
X001089Y019680D02*
X001091Y019728D01*
X001097Y019776D01*
X001107Y019823D01*
X001120Y019869D01*
X001138Y019914D01*
X001158Y019958D01*
X001183Y020000D01*
X001211Y020039D01*
X001241Y020076D01*
X001275Y020110D01*
X001312Y020142D01*
X001350Y020171D01*
X001391Y020196D01*
X001434Y020218D01*
X001479Y020236D01*
X001525Y020250D01*
X001572Y020261D01*
X001620Y020268D01*
X001668Y020271D01*
X001716Y020270D01*
X001764Y020265D01*
X001812Y020256D01*
X001858Y020244D01*
X001903Y020227D01*
X001947Y020207D01*
X001989Y020184D01*
X002029Y020157D01*
X002067Y020127D01*
X002102Y020094D01*
X002134Y020058D01*
X002164Y020020D01*
X002190Y019979D01*
X002212Y019936D01*
X002232Y019892D01*
X002247Y019847D01*
X002259Y019800D01*
X002267Y019752D01*
X002271Y019704D01*
X002271Y019656D01*
X002267Y019608D01*
X002259Y019560D01*
X002247Y019513D01*
X002232Y019468D01*
X002212Y019424D01*
X002190Y019381D01*
X002164Y019340D01*
X002134Y019302D01*
X002102Y019266D01*
X002067Y019233D01*
X002029Y019203D01*
X001989Y019176D01*
X001947Y019153D01*
X001903Y019133D01*
X001858Y019116D01*
X001812Y019104D01*
X001764Y019095D01*
X001716Y019090D01*
X001668Y019089D01*
X001620Y019092D01*
X001572Y019099D01*
X001525Y019110D01*
X001479Y019124D01*
X001434Y019142D01*
X001391Y019164D01*
X001350Y019189D01*
X001312Y019218D01*
X001275Y019250D01*
X001241Y019284D01*
X001211Y019321D01*
X001183Y019360D01*
X001158Y019402D01*
X001138Y019446D01*
X001120Y019491D01*
X001107Y019537D01*
X001097Y019584D01*
X001091Y019632D01*
X001089Y019680D01*
X001089Y014180D02*
X001091Y014228D01*
X001097Y014276D01*
X001107Y014323D01*
X001120Y014369D01*
X001138Y014414D01*
X001158Y014458D01*
X001183Y014500D01*
X001211Y014539D01*
X001241Y014576D01*
X001275Y014610D01*
X001312Y014642D01*
X001350Y014671D01*
X001391Y014696D01*
X001434Y014718D01*
X001479Y014736D01*
X001525Y014750D01*
X001572Y014761D01*
X001620Y014768D01*
X001668Y014771D01*
X001716Y014770D01*
X001764Y014765D01*
X001812Y014756D01*
X001858Y014744D01*
X001903Y014727D01*
X001947Y014707D01*
X001989Y014684D01*
X002029Y014657D01*
X002067Y014627D01*
X002102Y014594D01*
X002134Y014558D01*
X002164Y014520D01*
X002190Y014479D01*
X002212Y014436D01*
X002232Y014392D01*
X002247Y014347D01*
X002259Y014300D01*
X002267Y014252D01*
X002271Y014204D01*
X002271Y014156D01*
X002267Y014108D01*
X002259Y014060D01*
X002247Y014013D01*
X002232Y013968D01*
X002212Y013924D01*
X002190Y013881D01*
X002164Y013840D01*
X002134Y013802D01*
X002102Y013766D01*
X002067Y013733D01*
X002029Y013703D01*
X001989Y013676D01*
X001947Y013653D01*
X001903Y013633D01*
X001858Y013616D01*
X001812Y013604D01*
X001764Y013595D01*
X001716Y013590D01*
X001668Y013589D01*
X001620Y013592D01*
X001572Y013599D01*
X001525Y013610D01*
X001479Y013624D01*
X001434Y013642D01*
X001391Y013664D01*
X001350Y013689D01*
X001312Y013718D01*
X001275Y013750D01*
X001241Y013784D01*
X001211Y013821D01*
X001183Y013860D01*
X001158Y013902D01*
X001138Y013946D01*
X001120Y013991D01*
X001107Y014037D01*
X001097Y014084D01*
X001091Y014132D01*
X001089Y014180D01*
D11*
X018895Y020302D02*
X018956Y020240D01*
X019018Y020240D01*
X019080Y020302D01*
X019080Y020425D01*
X019142Y020487D01*
X019203Y020487D01*
X019265Y020425D01*
X019265Y020302D01*
X019203Y020240D01*
X018895Y020302D02*
X018895Y020425D01*
X018956Y020487D01*
X018956Y020608D02*
X019203Y020608D01*
X019265Y020670D01*
X019265Y020794D01*
X019203Y020855D01*
X019265Y020977D02*
X019265Y021224D01*
X019265Y020977D02*
X018895Y020977D01*
X018956Y020855D02*
X018895Y020794D01*
X018895Y020670D01*
X018956Y020608D01*
X019895Y020608D02*
X019895Y020794D01*
X019956Y020855D01*
X020203Y020855D01*
X020265Y020794D01*
X020265Y020608D01*
X019895Y020608D01*
X019956Y020487D02*
X019895Y020425D01*
X019895Y020302D01*
X019956Y020240D01*
X020018Y020240D01*
X020080Y020302D01*
X020080Y020425D01*
X020142Y020487D01*
X020203Y020487D01*
X020265Y020425D01*
X020265Y020302D01*
X020203Y020240D01*
X020895Y020118D02*
X021018Y020241D01*
X021265Y020241D01*
X021265Y020363D02*
X020895Y020363D01*
X020895Y020548D01*
X020956Y020610D01*
X021080Y020610D01*
X021142Y020548D01*
X021142Y020363D01*
X021142Y020486D02*
X021265Y020610D01*
X021203Y020731D02*
X021080Y020731D01*
X021018Y020793D01*
X021018Y020916D01*
X021080Y020978D01*
X021142Y020978D01*
X021142Y020731D01*
X021203Y020731D02*
X021265Y020793D01*
X021265Y020916D01*
X021265Y021161D02*
X020956Y021161D01*
X020895Y021223D01*
X021080Y021223D02*
X021080Y021099D01*
X021895Y021174D02*
X022265Y021174D01*
X022265Y020988D01*
X022203Y020927D01*
X022080Y020927D01*
X022018Y020988D01*
X022018Y021174D01*
X022080Y020805D02*
X022018Y020744D01*
X022018Y020558D01*
X022265Y020558D01*
X022265Y020437D02*
X022265Y020252D01*
X022203Y020190D01*
X022080Y020190D01*
X022018Y020252D01*
X022018Y020437D01*
X022327Y020437D01*
X022388Y020375D01*
X022388Y020313D01*
X022265Y020805D02*
X022080Y020805D01*
X022808Y020795D02*
X023055Y020795D01*
X022932Y020795D02*
X022932Y021165D01*
X022808Y021042D01*
X023177Y021104D02*
X023238Y021165D01*
X023362Y021165D01*
X023424Y021104D01*
X023424Y021042D01*
X023362Y020980D01*
X023424Y020918D01*
X023424Y020857D01*
X023362Y020795D01*
X023238Y020795D01*
X023177Y020857D01*
X023300Y020980D02*
X023362Y020980D01*
X023808Y021042D02*
X023932Y021165D01*
X023932Y020795D01*
X024055Y020795D02*
X023808Y020795D01*
X024177Y020795D02*
X024424Y021042D01*
X024424Y021104D01*
X024362Y021165D01*
X024238Y021165D01*
X024177Y021104D01*
X024177Y020795D02*
X024424Y020795D01*
X024808Y020795D02*
X025055Y020795D01*
X025177Y020795D02*
X025424Y020795D01*
X025300Y020795D02*
X025300Y021165D01*
X025177Y021042D01*
X024932Y021165D02*
X024932Y020795D01*
X024808Y021042D02*
X024932Y021165D01*
X025808Y021042D02*
X025932Y021165D01*
X025932Y020795D01*
X026055Y020795D02*
X025808Y020795D01*
X026177Y020857D02*
X026177Y021104D01*
X026238Y021165D01*
X026362Y021165D01*
X026424Y021104D01*
X026177Y020857D01*
X026238Y020795D01*
X026362Y020795D01*
X026424Y020857D01*
X026424Y021104D01*
X026977Y021104D02*
X026977Y021042D01*
X027038Y020980D01*
X027224Y020980D01*
X027224Y020857D02*
X027224Y021104D01*
X027162Y021165D01*
X027038Y021165D01*
X026977Y021104D01*
X026977Y020857D02*
X027038Y020795D01*
X027162Y020795D01*
X027224Y020857D01*
X027977Y020857D02*
X027977Y020918D01*
X028038Y020980D01*
X028162Y020980D01*
X028224Y020918D01*
X028224Y020857D01*
X028162Y020795D01*
X028038Y020795D01*
X027977Y020857D01*
X028038Y020980D02*
X027977Y021042D01*
X027977Y021104D01*
X028038Y021165D01*
X028162Y021165D01*
X028224Y021104D01*
X028224Y021042D01*
X028162Y020980D01*
X029577Y020857D02*
X029577Y020795D01*
X029577Y020857D02*
X029824Y021104D01*
X029824Y021165D01*
X029577Y021165D01*
X030577Y020980D02*
X030577Y020857D01*
X030638Y020795D01*
X030762Y020795D01*
X030824Y020857D01*
X030824Y020918D01*
X030762Y020980D01*
X030577Y020980D01*
X030700Y021104D01*
X030824Y021165D01*
X031577Y021165D02*
X031577Y020980D01*
X031700Y021042D01*
X031762Y021042D01*
X031824Y020980D01*
X031824Y020857D01*
X031762Y020795D01*
X031638Y020795D01*
X031577Y020857D01*
X031577Y021165D02*
X031824Y021165D01*
X032577Y020980D02*
X032824Y020980D01*
X032762Y020795D02*
X032762Y021165D01*
X032577Y020980D01*
X033577Y020857D02*
X033638Y020795D01*
X033762Y020795D01*
X033824Y020857D01*
X033824Y020918D01*
X033762Y020980D01*
X033700Y020980D01*
X033762Y020980D02*
X033824Y021042D01*
X033824Y021104D01*
X033762Y021165D01*
X033638Y021165D01*
X033577Y021104D01*
X034577Y021104D02*
X034638Y021165D01*
X034762Y021165D01*
X034824Y021104D01*
X034824Y021042D01*
X034577Y020795D01*
X034824Y020795D01*
X035577Y020795D02*
X035824Y020795D01*
X035700Y020795D02*
X035700Y021165D01*
X035577Y021042D01*
X036577Y021104D02*
X036577Y020857D01*
X036824Y021104D01*
X036824Y020857D01*
X036762Y020795D01*
X036638Y020795D01*
X036577Y020857D01*
X036577Y021104D02*
X036638Y021165D01*
X036762Y021165D01*
X036824Y021104D01*
X035061Y022257D02*
X034999Y022195D01*
X034876Y022195D01*
X034814Y022257D01*
X034814Y022504D01*
X034876Y022565D01*
X034999Y022565D01*
X035061Y022504D01*
X035061Y022257D01*
X034693Y022565D02*
X034446Y022195D01*
X034324Y022195D02*
X034200Y022195D01*
X034262Y022195D02*
X034262Y022565D01*
X034200Y022565D02*
X034324Y022565D01*
X033648Y022565D02*
X033648Y022195D01*
X033587Y022195D02*
X033710Y022195D01*
X033465Y022195D02*
X033280Y022195D01*
X033218Y022257D01*
X033280Y022318D01*
X033465Y022318D01*
X033465Y022380D02*
X033465Y022195D01*
X033465Y022380D02*
X033403Y022442D01*
X033280Y022442D01*
X033096Y022442D02*
X032973Y022442D01*
X033034Y022504D02*
X033034Y022257D01*
X033096Y022195D01*
X032851Y022195D02*
X032727Y022195D01*
X032789Y022195D02*
X032789Y022442D01*
X032727Y022442D01*
X032606Y022442D02*
X032421Y022442D01*
X032359Y022380D01*
X032359Y022257D01*
X032421Y022195D01*
X032606Y022195D01*
X032606Y022133D02*
X032606Y022442D01*
X032789Y022565D02*
X032789Y022627D01*
X032606Y022133D02*
X032544Y022072D01*
X032482Y022072D01*
X032237Y022195D02*
X032113Y022195D01*
X032175Y022195D02*
X032175Y022442D01*
X032113Y022442D01*
X031992Y022504D02*
X031930Y022565D01*
X031745Y022565D01*
X031745Y022195D01*
X031930Y022195D01*
X031992Y022257D01*
X031992Y022504D01*
X032175Y022565D02*
X032175Y022627D01*
X033587Y022565D02*
X033648Y022565D01*
X027461Y022504D02*
X027461Y022257D01*
X027399Y022195D01*
X027276Y022195D01*
X027214Y022257D01*
X027214Y022504D01*
X027276Y022565D01*
X027399Y022565D01*
X027461Y022504D01*
X027093Y022565D02*
X026846Y022195D01*
X026724Y022195D02*
X026600Y022195D01*
X026662Y022195D02*
X026662Y022565D01*
X026600Y022565D02*
X026724Y022565D01*
X026048Y022565D02*
X026048Y022195D01*
X025987Y022195D02*
X026110Y022195D01*
X025865Y022195D02*
X025680Y022195D01*
X025618Y022257D01*
X025680Y022318D01*
X025865Y022318D01*
X025865Y022380D02*
X025865Y022195D01*
X025865Y022380D02*
X025803Y022442D01*
X025680Y022442D01*
X025496Y022442D02*
X025373Y022442D01*
X025434Y022504D02*
X025434Y022257D01*
X025496Y022195D01*
X025251Y022195D02*
X025127Y022195D01*
X025189Y022195D02*
X025189Y022442D01*
X025127Y022442D01*
X025006Y022442D02*
X024821Y022442D01*
X024759Y022380D01*
X024759Y022257D01*
X024821Y022195D01*
X025006Y022195D01*
X025006Y022133D02*
X025006Y022442D01*
X025189Y022565D02*
X025189Y022627D01*
X024575Y022627D02*
X024575Y022565D01*
X024575Y022442D02*
X024575Y022195D01*
X024513Y022195D02*
X024637Y022195D01*
X024392Y022257D02*
X024392Y022504D01*
X024330Y022565D01*
X024145Y022565D01*
X024145Y022195D01*
X024330Y022195D01*
X024392Y022257D01*
X024513Y022442D02*
X024575Y022442D01*
X024882Y022072D02*
X024944Y022072D01*
X025006Y022133D01*
X025987Y022565D02*
X026048Y022565D01*
X021265Y019995D02*
X021018Y019995D01*
X020895Y020118D01*
X021080Y019995D02*
X021080Y020241D01*
X020265Y020977D02*
X020018Y020977D01*
X019895Y021100D01*
X020018Y021224D01*
X020265Y021224D01*
X020080Y021224D02*
X020080Y020977D01*
X024495Y004175D02*
X024495Y003928D01*
X024495Y004051D02*
X024865Y004051D01*
X024803Y003806D02*
X024742Y003806D01*
X024680Y003744D01*
X024680Y003621D01*
X024618Y003559D01*
X024556Y003559D01*
X024495Y003621D01*
X024495Y003744D01*
X024556Y003806D01*
X024803Y003806D02*
X024865Y003744D01*
X024865Y003621D01*
X024803Y003559D01*
X024865Y003438D02*
X024742Y003314D01*
X024742Y003376D02*
X024742Y003191D01*
X024865Y003191D02*
X024495Y003191D01*
X024495Y003376D01*
X024556Y003438D01*
X024680Y003438D01*
X024742Y003376D01*
X025377Y003257D02*
X025439Y003195D01*
X025562Y003195D01*
X025624Y003257D01*
X025624Y003318D01*
X025562Y003380D01*
X025500Y003380D01*
X025562Y003380D02*
X025624Y003442D01*
X025624Y003504D01*
X025562Y003565D01*
X025439Y003565D01*
X025377Y003504D01*
X025745Y003442D02*
X025869Y003195D01*
X025992Y003442D01*
X026477Y003380D02*
X026600Y003442D01*
X026662Y003442D01*
X026724Y003380D01*
X026724Y003257D01*
X026662Y003195D01*
X026539Y003195D01*
X026477Y003257D01*
X026477Y003380D02*
X026477Y003565D01*
X026724Y003565D01*
X026845Y003442D02*
X026969Y003195D01*
X027092Y003442D01*
X027749Y003504D02*
X027749Y003257D01*
X027811Y003195D01*
X027934Y003195D01*
X027996Y003257D01*
X027996Y003380D01*
X027872Y003380D01*
X027749Y003504D02*
X027811Y003565D01*
X027934Y003565D01*
X027996Y003504D01*
X028117Y003442D02*
X028302Y003442D01*
X028364Y003380D01*
X028364Y003195D01*
X028486Y003257D02*
X028486Y003380D01*
X028547Y003442D01*
X028732Y003442D01*
X028732Y003565D02*
X028732Y003195D01*
X028547Y003195D01*
X028486Y003257D01*
X028117Y003195D02*
X028117Y003442D01*
X029327Y003565D02*
X029327Y003318D01*
X029450Y003195D01*
X029574Y003318D01*
X029574Y003565D01*
X029695Y003442D02*
X029757Y003442D01*
X029757Y003195D01*
X029695Y003195D02*
X029819Y003195D01*
X029941Y003195D02*
X029941Y003442D01*
X030126Y003442D01*
X030188Y003380D01*
X030188Y003195D01*
X029757Y003565D02*
X029757Y003627D01*
X031545Y003504D02*
X031545Y003257D01*
X031792Y003504D01*
X031792Y003257D01*
X031730Y003195D01*
X031607Y003195D01*
X031545Y003257D01*
X031545Y003504D02*
X031607Y003565D01*
X031730Y003565D01*
X031792Y003504D01*
X032545Y003442D02*
X032668Y003565D01*
X032668Y003195D01*
X032545Y003195D02*
X032792Y003195D01*
X033545Y003195D02*
X033792Y003442D01*
X033792Y003504D01*
X033730Y003565D01*
X033607Y003565D01*
X033545Y003504D01*
X033545Y003195D02*
X033792Y003195D01*
X034545Y003257D02*
X034607Y003195D01*
X034730Y003195D01*
X034792Y003257D01*
X034792Y003318D01*
X034730Y003380D01*
X034668Y003380D01*
X034730Y003380D02*
X034792Y003442D01*
X034792Y003504D01*
X034730Y003565D01*
X034607Y003565D01*
X034545Y003504D01*
X035545Y003380D02*
X035792Y003380D01*
X035730Y003195D02*
X035730Y003565D01*
X035545Y003380D01*
X036545Y003380D02*
X036668Y003442D01*
X036730Y003442D01*
X036792Y003380D01*
X036792Y003257D01*
X036730Y003195D01*
X036607Y003195D01*
X036545Y003257D01*
X036545Y003380D02*
X036545Y003565D01*
X036792Y003565D01*
X035578Y002247D02*
X035454Y002247D01*
X035516Y002247D02*
X035516Y001877D01*
X035454Y001877D02*
X035578Y001877D01*
X035700Y001877D02*
X035700Y002124D01*
X035885Y002124D01*
X035947Y002062D01*
X035947Y001877D01*
X034965Y001877D02*
X034779Y001877D01*
X034718Y001939D01*
X034718Y002062D01*
X034779Y002124D01*
X034965Y002124D01*
X034965Y001815D01*
X034903Y001754D01*
X034841Y001754D01*
X034596Y001939D02*
X034596Y002062D01*
X034535Y002124D01*
X034411Y002124D01*
X034349Y002062D01*
X034349Y001939D01*
X034411Y001877D01*
X034535Y001877D01*
X034596Y001939D01*
X034227Y001877D02*
X034104Y001877D01*
X034166Y001877D02*
X034166Y002247D01*
X034104Y002247D01*
X033921Y002124D02*
X033797Y002124D01*
X033797Y002000D02*
X033982Y002000D01*
X033982Y002062D02*
X033982Y001877D01*
X033797Y001877D01*
X033736Y001939D01*
X033797Y002000D01*
X033921Y002124D02*
X033982Y002062D01*
X033614Y002062D02*
X033614Y001877D01*
X033614Y002062D02*
X033552Y002124D01*
X033367Y002124D01*
X033367Y001877D01*
X033246Y001877D02*
X033246Y002124D01*
X033122Y002247D01*
X032999Y002124D01*
X032999Y001877D01*
X032999Y002062D02*
X033246Y002062D01*
X023865Y003191D02*
X023865Y003314D01*
X023865Y003253D02*
X023495Y003253D01*
X023495Y003314D02*
X023495Y003191D01*
X023556Y003437D02*
X023803Y003437D01*
X023865Y003498D01*
X023865Y003622D01*
X023803Y003683D01*
X023556Y003683D01*
X023495Y003622D01*
X023495Y003498D01*
X023556Y003437D01*
X023618Y003805D02*
X023865Y003805D01*
X023742Y003805D02*
X023618Y003928D01*
X023618Y003990D01*
D12*
X035480Y004830D02*
X035480Y006530D01*
X036287Y006880D02*
X037080Y006880D01*
X037880Y006530D02*
X037880Y004830D01*
X037080Y004480D02*
X036275Y004480D01*
X035980Y005680D02*
X035982Y005732D01*
X035988Y005784D01*
X035998Y005836D01*
X036011Y005886D01*
X036028Y005936D01*
X036049Y005984D01*
X036074Y006030D01*
X036102Y006074D01*
X036133Y006116D01*
X036167Y006156D01*
X036204Y006193D01*
X036244Y006227D01*
X036286Y006258D01*
X036330Y006286D01*
X036376Y006311D01*
X036424Y006332D01*
X036474Y006349D01*
X036524Y006362D01*
X036576Y006372D01*
X036628Y006378D01*
X036680Y006380D01*
X036732Y006378D01*
X036784Y006372D01*
X036836Y006362D01*
X036886Y006349D01*
X036936Y006332D01*
X036984Y006311D01*
X037030Y006286D01*
X037074Y006258D01*
X037116Y006227D01*
X037156Y006193D01*
X037193Y006156D01*
X037227Y006116D01*
X037258Y006074D01*
X037286Y006030D01*
X037311Y005984D01*
X037332Y005936D01*
X037349Y005886D01*
X037362Y005836D01*
X037372Y005784D01*
X037378Y005732D01*
X037380Y005680D01*
X037378Y005628D01*
X037372Y005576D01*
X037362Y005524D01*
X037349Y005474D01*
X037332Y005424D01*
X037311Y005376D01*
X037286Y005330D01*
X037258Y005286D01*
X037227Y005244D01*
X037193Y005204D01*
X037156Y005167D01*
X037116Y005133D01*
X037074Y005102D01*
X037030Y005074D01*
X036984Y005049D01*
X036936Y005028D01*
X036886Y005011D01*
X036836Y004998D01*
X036784Y004988D01*
X036732Y004982D01*
X036680Y004980D01*
X036628Y004982D01*
X036576Y004988D01*
X036524Y004998D01*
X036474Y005011D01*
X036424Y005028D01*
X036376Y005049D01*
X036330Y005074D01*
X036286Y005102D01*
X036244Y005133D01*
X036204Y005167D01*
X036167Y005204D01*
X036133Y005244D01*
X036102Y005286D01*
X036074Y005330D01*
X036049Y005376D01*
X036028Y005424D01*
X036011Y005474D01*
X035998Y005524D01*
X035988Y005576D01*
X035982Y005628D01*
X035980Y005680D01*
X036430Y010180D02*
X036180Y010430D01*
X036180Y010930D01*
X036430Y011180D01*
X036180Y011430D01*
X036180Y011930D01*
X036430Y012180D01*
X036180Y012430D01*
X036180Y012930D01*
X036430Y013180D01*
X036180Y013430D01*
X036180Y013930D01*
X036430Y014180D01*
X036930Y014180D01*
X037180Y013930D01*
X037180Y013430D01*
X036930Y013180D01*
X037180Y012930D01*
X037180Y012430D01*
X036930Y012180D01*
X037180Y011930D01*
X037180Y011430D01*
X036930Y011180D01*
X037180Y010930D01*
X037180Y010430D01*
X036930Y010180D01*
X036430Y010180D01*
X035152Y011440D02*
X034208Y011440D01*
X034208Y013920D01*
X035152Y013920D01*
X035152Y011440D01*
X034152Y012440D02*
X033208Y012440D01*
X033208Y014920D01*
X034152Y014920D01*
X034152Y012440D01*
X034152Y017440D02*
X033208Y017440D01*
X033208Y019920D01*
X034152Y019920D01*
X034152Y017440D01*
X035480Y017830D02*
X035480Y019530D01*
X036287Y019880D02*
X037080Y019880D01*
X037880Y019530D02*
X037880Y017830D01*
X037080Y017480D02*
X036275Y017480D01*
X035980Y018680D02*
X035982Y018732D01*
X035988Y018784D01*
X035998Y018836D01*
X036011Y018886D01*
X036028Y018936D01*
X036049Y018984D01*
X036074Y019030D01*
X036102Y019074D01*
X036133Y019116D01*
X036167Y019156D01*
X036204Y019193D01*
X036244Y019227D01*
X036286Y019258D01*
X036330Y019286D01*
X036376Y019311D01*
X036424Y019332D01*
X036474Y019349D01*
X036524Y019362D01*
X036576Y019372D01*
X036628Y019378D01*
X036680Y019380D01*
X036732Y019378D01*
X036784Y019372D01*
X036836Y019362D01*
X036886Y019349D01*
X036936Y019332D01*
X036984Y019311D01*
X037030Y019286D01*
X037074Y019258D01*
X037116Y019227D01*
X037156Y019193D01*
X037193Y019156D01*
X037227Y019116D01*
X037258Y019074D01*
X037286Y019030D01*
X037311Y018984D01*
X037332Y018936D01*
X037349Y018886D01*
X037362Y018836D01*
X037372Y018784D01*
X037378Y018732D01*
X037380Y018680D01*
X037378Y018628D01*
X037372Y018576D01*
X037362Y018524D01*
X037349Y018474D01*
X037332Y018424D01*
X037311Y018376D01*
X037286Y018330D01*
X037258Y018286D01*
X037227Y018244D01*
X037193Y018204D01*
X037156Y018167D01*
X037116Y018133D01*
X037074Y018102D01*
X037030Y018074D01*
X036984Y018049D01*
X036936Y018028D01*
X036886Y018011D01*
X036836Y017998D01*
X036784Y017988D01*
X036732Y017982D01*
X036680Y017980D01*
X036628Y017982D01*
X036576Y017988D01*
X036524Y017998D01*
X036474Y018011D01*
X036424Y018028D01*
X036376Y018049D01*
X036330Y018074D01*
X036286Y018102D01*
X036244Y018133D01*
X036204Y018167D01*
X036167Y018204D01*
X036133Y018244D01*
X036102Y018286D01*
X036074Y018330D01*
X036049Y018376D01*
X036028Y018424D01*
X036011Y018474D01*
X035998Y018524D01*
X035988Y018576D01*
X035982Y018628D01*
X035980Y018680D01*
D13*
X035155Y018466D02*
X035155Y018165D01*
X035155Y018316D02*
X034705Y018316D01*
X034855Y018165D01*
X034780Y018005D02*
X034705Y017930D01*
X034705Y017780D01*
X034780Y017705D01*
X034855Y017705D01*
X034930Y017780D01*
X034930Y017930D01*
X035005Y018005D01*
X035080Y018005D01*
X035155Y017930D01*
X035155Y017780D01*
X035080Y017705D01*
X034725Y019366D02*
X034455Y019366D01*
X034455Y019501D01*
X034500Y019546D01*
X034590Y019546D01*
X034635Y019501D01*
X034635Y019366D01*
X034635Y019456D02*
X034725Y019546D01*
X034680Y019660D02*
X034725Y019705D01*
X034725Y019795D01*
X034680Y019841D01*
X034635Y019841D01*
X034590Y019795D01*
X034590Y019750D01*
X034590Y019795D02*
X034545Y019841D01*
X034500Y019841D01*
X034455Y019795D01*
X034455Y019705D01*
X034500Y019660D01*
X033825Y019491D02*
X033825Y019310D01*
X033825Y019400D02*
X033555Y019400D01*
X033645Y019310D01*
X031680Y021180D02*
X023280Y021180D01*
X023280Y003180D01*
X031680Y003180D01*
X031680Y021180D01*
X023473Y020180D02*
X023475Y020233D01*
X023481Y020285D01*
X023491Y020337D01*
X023504Y020388D01*
X023522Y020438D01*
X023543Y020487D01*
X023568Y020534D01*
X023596Y020578D01*
X023627Y020621D01*
X023662Y020661D01*
X023699Y020698D01*
X023739Y020733D01*
X023782Y020764D01*
X023827Y020792D01*
X023873Y020817D01*
X023922Y020838D01*
X023972Y020856D01*
X024023Y020869D01*
X024075Y020879D01*
X024127Y020885D01*
X024180Y020887D01*
X024233Y020885D01*
X024285Y020879D01*
X024337Y020869D01*
X024388Y020856D01*
X024438Y020838D01*
X024487Y020817D01*
X024534Y020792D01*
X024578Y020764D01*
X024621Y020733D01*
X024661Y020698D01*
X024698Y020661D01*
X024733Y020621D01*
X024764Y020578D01*
X024792Y020533D01*
X024817Y020487D01*
X024838Y020438D01*
X024856Y020388D01*
X024869Y020337D01*
X024879Y020285D01*
X024885Y020233D01*
X024887Y020180D01*
X024885Y020127D01*
X024879Y020075D01*
X024869Y020023D01*
X024856Y019972D01*
X024838Y019922D01*
X024817Y019873D01*
X024792Y019826D01*
X024764Y019782D01*
X024733Y019739D01*
X024698Y019699D01*
X024661Y019662D01*
X024621Y019627D01*
X024578Y019596D01*
X024533Y019568D01*
X024487Y019543D01*
X024438Y019522D01*
X024388Y019504D01*
X024337Y019491D01*
X024285Y019481D01*
X024233Y019475D01*
X024180Y019473D01*
X024127Y019475D01*
X024075Y019481D01*
X024023Y019491D01*
X023972Y019504D01*
X023922Y019522D01*
X023873Y019543D01*
X023826Y019568D01*
X023782Y019596D01*
X023739Y019627D01*
X023699Y019662D01*
X023662Y019699D01*
X023627Y019739D01*
X023596Y019782D01*
X023568Y019827D01*
X023543Y019873D01*
X023522Y019922D01*
X023504Y019972D01*
X023491Y020023D01*
X023481Y020075D01*
X023475Y020127D01*
X023473Y020180D01*
X019935Y015167D02*
X019485Y015167D01*
X019485Y015017D02*
X019485Y015317D01*
X019560Y014856D02*
X019710Y014856D01*
X019785Y014781D01*
X019785Y014556D01*
X019935Y014556D02*
X019485Y014556D01*
X019485Y014781D01*
X019560Y014856D01*
X019785Y014706D02*
X019935Y014856D01*
X019935Y014396D02*
X019635Y014396D01*
X019485Y014246D01*
X019635Y014096D01*
X019935Y014096D01*
X019935Y013936D02*
X019935Y013635D01*
X019485Y013635D01*
X019485Y013936D01*
X019710Y013786D02*
X019710Y013635D01*
X019710Y013475D02*
X019710Y013175D01*
X019935Y013175D02*
X019485Y013175D01*
X019485Y013475D02*
X019935Y013475D01*
X019710Y014096D02*
X019710Y014396D01*
X012074Y009574D02*
X008924Y009574D01*
X008924Y008786D01*
X010105Y008786D01*
X010105Y008393D01*
X010893Y008393D01*
X010893Y008786D01*
X012074Y008786D01*
X012074Y009574D01*
X014180Y008680D02*
X020180Y008680D01*
X020180Y002680D01*
X014180Y002680D01*
X014180Y008680D01*
X014473Y007680D02*
X014475Y007733D01*
X014481Y007785D01*
X014491Y007837D01*
X014504Y007888D01*
X014522Y007938D01*
X014543Y007987D01*
X014568Y008034D01*
X014596Y008078D01*
X014627Y008121D01*
X014662Y008161D01*
X014699Y008198D01*
X014739Y008233D01*
X014782Y008264D01*
X014827Y008292D01*
X014873Y008317D01*
X014922Y008338D01*
X014972Y008356D01*
X015023Y008369D01*
X015075Y008379D01*
X015127Y008385D01*
X015180Y008387D01*
X015233Y008385D01*
X015285Y008379D01*
X015337Y008369D01*
X015388Y008356D01*
X015438Y008338D01*
X015487Y008317D01*
X015534Y008292D01*
X015578Y008264D01*
X015621Y008233D01*
X015661Y008198D01*
X015698Y008161D01*
X015733Y008121D01*
X015764Y008078D01*
X015792Y008033D01*
X015817Y007987D01*
X015838Y007938D01*
X015856Y007888D01*
X015869Y007837D01*
X015879Y007785D01*
X015885Y007733D01*
X015887Y007680D01*
X015885Y007627D01*
X015879Y007575D01*
X015869Y007523D01*
X015856Y007472D01*
X015838Y007422D01*
X015817Y007373D01*
X015792Y007326D01*
X015764Y007282D01*
X015733Y007239D01*
X015698Y007199D01*
X015661Y007162D01*
X015621Y007127D01*
X015578Y007096D01*
X015533Y007068D01*
X015487Y007043D01*
X015438Y007022D01*
X015388Y007004D01*
X015337Y006991D01*
X015285Y006981D01*
X015233Y006975D01*
X015180Y006973D01*
X015127Y006975D01*
X015075Y006981D01*
X015023Y006991D01*
X014972Y007004D01*
X014922Y007022D01*
X014873Y007043D01*
X014826Y007068D01*
X014782Y007096D01*
X014739Y007127D01*
X014699Y007162D01*
X014662Y007199D01*
X014627Y007239D01*
X014596Y007282D01*
X014568Y007327D01*
X014543Y007373D01*
X014522Y007422D01*
X014504Y007472D01*
X014491Y007523D01*
X014481Y007575D01*
X014475Y007627D01*
X014473Y007680D01*
X012074Y006574D02*
X008924Y006574D01*
X008924Y005786D01*
X010105Y005786D01*
X010105Y005393D01*
X010893Y005393D01*
X010893Y005786D01*
X012074Y005786D01*
X012074Y006574D01*
X014473Y003680D02*
X014475Y003733D01*
X014481Y003785D01*
X014491Y003837D01*
X014504Y003888D01*
X014522Y003938D01*
X014543Y003987D01*
X014568Y004034D01*
X014596Y004078D01*
X014627Y004121D01*
X014662Y004161D01*
X014699Y004198D01*
X014739Y004233D01*
X014782Y004264D01*
X014827Y004292D01*
X014873Y004317D01*
X014922Y004338D01*
X014972Y004356D01*
X015023Y004369D01*
X015075Y004379D01*
X015127Y004385D01*
X015180Y004387D01*
X015233Y004385D01*
X015285Y004379D01*
X015337Y004369D01*
X015388Y004356D01*
X015438Y004338D01*
X015487Y004317D01*
X015534Y004292D01*
X015578Y004264D01*
X015621Y004233D01*
X015661Y004198D01*
X015698Y004161D01*
X015733Y004121D01*
X015764Y004078D01*
X015792Y004033D01*
X015817Y003987D01*
X015838Y003938D01*
X015856Y003888D01*
X015869Y003837D01*
X015879Y003785D01*
X015885Y003733D01*
X015887Y003680D01*
X015885Y003627D01*
X015879Y003575D01*
X015869Y003523D01*
X015856Y003472D01*
X015838Y003422D01*
X015817Y003373D01*
X015792Y003326D01*
X015764Y003282D01*
X015733Y003239D01*
X015698Y003199D01*
X015661Y003162D01*
X015621Y003127D01*
X015578Y003096D01*
X015533Y003068D01*
X015487Y003043D01*
X015438Y003022D01*
X015388Y003004D01*
X015337Y002991D01*
X015285Y002981D01*
X015233Y002975D01*
X015180Y002973D01*
X015127Y002975D01*
X015075Y002981D01*
X015023Y002991D01*
X014972Y003004D01*
X014922Y003022D01*
X014873Y003043D01*
X014826Y003068D01*
X014782Y003096D01*
X014739Y003127D01*
X014699Y003162D01*
X014662Y003199D01*
X014627Y003239D01*
X014596Y003282D01*
X014568Y003327D01*
X014543Y003373D01*
X014522Y003422D01*
X014504Y003472D01*
X014491Y003523D01*
X014481Y003575D01*
X014475Y003627D01*
X014473Y003680D01*
X012074Y003574D02*
X012074Y002786D01*
X010893Y002786D01*
X010893Y002393D01*
X010105Y002393D01*
X010105Y002786D01*
X008924Y002786D01*
X008924Y003574D01*
X012074Y003574D01*
X007074Y003574D02*
X007074Y002786D01*
X005893Y002786D01*
X005893Y002393D01*
X005105Y002393D01*
X005105Y002786D01*
X003924Y002786D01*
X003924Y003574D01*
X007074Y003574D01*
X005893Y005393D02*
X005105Y005393D01*
X005105Y005786D01*
X003924Y005786D01*
X003924Y006574D01*
X007074Y006574D01*
X007074Y005786D01*
X005893Y005786D01*
X005893Y005393D01*
X005893Y008393D02*
X005105Y008393D01*
X005105Y008786D01*
X003924Y008786D01*
X003924Y009574D01*
X007074Y009574D01*
X007074Y008786D01*
X005893Y008786D01*
X005893Y008393D01*
X005893Y011393D02*
X005105Y011393D01*
X005105Y011786D01*
X003924Y011786D01*
X003924Y012574D01*
X007074Y012574D01*
X007074Y011786D01*
X005893Y011786D01*
X005893Y011393D01*
X029973Y004180D02*
X029975Y004233D01*
X029981Y004285D01*
X029991Y004337D01*
X030004Y004388D01*
X030022Y004438D01*
X030043Y004487D01*
X030068Y004534D01*
X030096Y004578D01*
X030127Y004621D01*
X030162Y004661D01*
X030199Y004698D01*
X030239Y004733D01*
X030282Y004764D01*
X030327Y004792D01*
X030373Y004817D01*
X030422Y004838D01*
X030472Y004856D01*
X030523Y004869D01*
X030575Y004879D01*
X030627Y004885D01*
X030680Y004887D01*
X030733Y004885D01*
X030785Y004879D01*
X030837Y004869D01*
X030888Y004856D01*
X030938Y004838D01*
X030987Y004817D01*
X031034Y004792D01*
X031078Y004764D01*
X031121Y004733D01*
X031161Y004698D01*
X031198Y004661D01*
X031233Y004621D01*
X031264Y004578D01*
X031292Y004533D01*
X031317Y004487D01*
X031338Y004438D01*
X031356Y004388D01*
X031369Y004337D01*
X031379Y004285D01*
X031385Y004233D01*
X031387Y004180D01*
X031385Y004127D01*
X031379Y004075D01*
X031369Y004023D01*
X031356Y003972D01*
X031338Y003922D01*
X031317Y003873D01*
X031292Y003826D01*
X031264Y003782D01*
X031233Y003739D01*
X031198Y003699D01*
X031161Y003662D01*
X031121Y003627D01*
X031078Y003596D01*
X031033Y003568D01*
X030987Y003543D01*
X030938Y003522D01*
X030888Y003504D01*
X030837Y003491D01*
X030785Y003481D01*
X030733Y003475D01*
X030680Y003473D01*
X030627Y003475D01*
X030575Y003481D01*
X030523Y003491D01*
X030472Y003504D01*
X030422Y003522D01*
X030373Y003543D01*
X030326Y003568D01*
X030282Y003596D01*
X030239Y003627D01*
X030199Y003662D01*
X030162Y003699D01*
X030127Y003739D01*
X030096Y003782D01*
X030068Y003827D01*
X030043Y003873D01*
X030022Y003922D01*
X030004Y003972D01*
X029991Y004023D01*
X029981Y004075D01*
X029975Y004127D01*
X029973Y004180D01*
X034705Y004780D02*
X034780Y004705D01*
X034855Y004705D01*
X034930Y004780D01*
X034930Y004930D01*
X035005Y005005D01*
X035080Y005005D01*
X035155Y004930D01*
X035155Y004780D01*
X035080Y004705D01*
X034705Y004780D02*
X034705Y004930D01*
X034780Y005005D01*
X034780Y005165D02*
X034705Y005240D01*
X034705Y005391D01*
X034780Y005466D01*
X034855Y005466D01*
X035155Y005165D01*
X035155Y005466D01*
X035485Y010175D02*
X035935Y010175D01*
X035935Y010475D01*
X035935Y010635D02*
X035935Y010936D01*
X035935Y011096D02*
X035485Y011096D01*
X035485Y011321D01*
X035560Y011396D01*
X035860Y011396D01*
X035935Y011321D01*
X035935Y011096D01*
X035710Y010786D02*
X035710Y010635D01*
X035485Y010635D02*
X035935Y010635D01*
X035485Y010635D02*
X035485Y010936D01*
X035455Y013366D02*
X035455Y013501D01*
X035500Y013546D01*
X035590Y013546D01*
X035635Y013501D01*
X035635Y013366D01*
X035635Y013456D02*
X035725Y013546D01*
X035725Y013660D02*
X035725Y013841D01*
X035725Y013750D02*
X035455Y013750D01*
X035545Y013660D01*
X035455Y013366D02*
X035725Y013366D01*
X034825Y013400D02*
X034555Y013400D01*
X034645Y013310D01*
X034825Y013310D02*
X034825Y013491D01*
X034725Y014366D02*
X034455Y014366D01*
X034455Y014501D01*
X034500Y014546D01*
X034590Y014546D01*
X034635Y014501D01*
X034635Y014366D01*
X034635Y014456D02*
X034725Y014546D01*
X034725Y014660D02*
X034545Y014841D01*
X034500Y014841D01*
X034455Y014795D01*
X034455Y014705D01*
X034500Y014660D01*
X034725Y014660D02*
X034725Y014841D01*
X033825Y014491D02*
X033825Y014310D01*
X033825Y014400D02*
X033555Y014400D01*
X033645Y014310D01*
D14*
X030547Y013084D02*
X030470Y013160D01*
X030316Y013160D01*
X030240Y013084D01*
X030240Y012777D01*
X030316Y012700D01*
X030470Y012700D01*
X030547Y012777D01*
X030547Y012930D01*
X030393Y012930D01*
X030086Y012700D02*
X029933Y012700D01*
X030009Y012700D02*
X030009Y013160D01*
X029933Y013160D02*
X030086Y013160D01*
X029779Y013084D02*
X029702Y013160D01*
X029549Y013160D01*
X029472Y013084D01*
X029472Y013007D01*
X029549Y012930D01*
X029702Y012930D01*
X029779Y012853D01*
X029779Y012777D01*
X029702Y012700D01*
X029549Y012700D01*
X029472Y012777D01*
X029779Y012160D02*
X029779Y011930D01*
X029933Y012007D01*
X030009Y012007D01*
X030086Y011930D01*
X030086Y011777D01*
X030009Y011700D01*
X029856Y011700D01*
X029779Y011777D01*
X029779Y012160D02*
X030086Y012160D01*
X030240Y012160D02*
X030240Y011853D01*
X030393Y011700D01*
X030547Y011853D01*
X030547Y012160D01*
X030470Y011160D02*
X030240Y011160D01*
X030240Y010700D01*
X030470Y010700D01*
X030547Y010777D01*
X030547Y011084D01*
X030470Y011160D01*
X030086Y011160D02*
X030086Y010700D01*
X029779Y011160D01*
X029779Y010700D01*
X029626Y010777D02*
X029549Y010700D01*
X029396Y010700D01*
X029319Y010777D01*
X029319Y011084D01*
X029396Y011160D01*
X029549Y011160D01*
X029626Y011084D01*
X029626Y010930D02*
X029472Y010930D01*
X029626Y010930D02*
X029626Y010777D01*
X020507Y004695D02*
X020430Y004695D01*
X020353Y004618D01*
X020353Y004465D01*
X020430Y004388D01*
X020583Y004388D01*
X020660Y004465D01*
X020660Y004618D01*
X020507Y004695D02*
X020507Y004388D01*
X020660Y004235D02*
X020353Y004235D01*
X020660Y004235D02*
X020660Y004004D01*
X020583Y003928D01*
X020353Y003928D01*
X020200Y003698D02*
X020660Y003698D01*
X020660Y003774D02*
X020660Y003621D01*
X020660Y003467D02*
X020660Y003237D01*
X020583Y003160D01*
X020507Y003237D01*
X020507Y003467D01*
X020430Y003467D02*
X020660Y003467D01*
X020430Y003467D02*
X020353Y003391D01*
X020353Y003237D01*
X020353Y003007D02*
X020660Y002853D01*
X020353Y002700D01*
X020200Y003621D02*
X020200Y003698D01*
X018660Y003737D02*
X018583Y003660D01*
X018507Y003737D01*
X018507Y003967D01*
X018507Y003737D01*
X018583Y003660D01*
X018660Y003737D01*
X018660Y003967D01*
X018430Y003967D01*
X018353Y003891D01*
X018353Y003737D01*
X018353Y003891D01*
X018430Y003967D01*
X018660Y003967D01*
X018660Y003737D01*
X018353Y003507D02*
X018660Y003353D01*
X018353Y003200D01*
X018660Y003353D01*
X018353Y003507D01*
X018200Y004121D02*
X018200Y004198D01*
X018660Y004198D01*
X018200Y004198D01*
X018200Y004121D01*
X018353Y004200D02*
X018660Y004353D01*
X018353Y004507D01*
X018353Y004428D02*
X018583Y004428D01*
X018660Y004504D01*
X018660Y004735D01*
X018353Y004735D01*
X018660Y004735D01*
X018660Y004504D01*
X018583Y004428D01*
X018353Y004428D01*
X018353Y004737D02*
X018353Y004891D01*
X018430Y004967D01*
X018660Y004967D01*
X018660Y004737D01*
X018583Y004660D01*
X018507Y004737D01*
X018507Y004967D01*
X018507Y004888D02*
X018507Y005195D01*
X018430Y005195D01*
X018353Y005118D01*
X018353Y004965D01*
X018430Y004888D01*
X018583Y004888D01*
X018660Y004965D01*
X018660Y005118D01*
X018660Y004965D01*
X018583Y004888D01*
X018430Y004888D01*
X018353Y004965D01*
X018353Y005118D01*
X018430Y005195D01*
X018507Y005195D01*
X018507Y004888D01*
X018660Y005121D02*
X018660Y005274D01*
X018660Y005198D02*
X018200Y005198D01*
X018200Y005121D01*
X018353Y005428D02*
X018583Y005428D01*
X018660Y005504D01*
X018660Y005735D01*
X018353Y005735D01*
X018430Y005888D02*
X018353Y005965D01*
X018353Y006118D01*
X018430Y006195D01*
X018507Y006195D01*
X018507Y005888D01*
X018583Y005888D02*
X018430Y005888D01*
X018583Y005888D02*
X018660Y005965D01*
X018660Y006118D01*
X018660Y004274D02*
X018660Y004121D01*
X018660Y004274D01*
X013660Y003928D02*
X013660Y003621D01*
X013660Y003774D02*
X013200Y003774D01*
X013353Y003621D01*
X013276Y003467D02*
X013200Y003391D01*
X013200Y003237D01*
X013276Y003160D01*
X013353Y003160D01*
X013430Y003237D01*
X013430Y003391D01*
X013507Y003467D01*
X013583Y003467D01*
X013660Y003391D01*
X013660Y003237D01*
X013583Y003160D01*
X013583Y003007D02*
X013200Y003007D01*
X013200Y002700D02*
X013583Y002700D01*
X013660Y002777D01*
X013660Y002930D01*
X013583Y003007D01*
X013737Y003314D02*
X013123Y003314D01*
D15*
X033203Y008560D02*
X033521Y008528D01*
X033555Y008421D01*
X033606Y008321D01*
X033404Y008074D01*
X033574Y007904D01*
X033821Y008106D01*
X033921Y008055D01*
X034062Y008396D01*
X034009Y008424D01*
X033962Y008462D01*
X033924Y008509D01*
X033896Y008562D01*
X033878Y008620D01*
X033872Y008680D01*
X033879Y008743D01*
X033898Y008803D01*
X033929Y008858D01*
X033971Y008905D01*
X034021Y008943D01*
X034078Y008970D01*
X034140Y008985D01*
X034203Y008987D01*
X034265Y008976D01*
X034324Y008952D01*
X034376Y008917D01*
X034420Y008872D01*
X034455Y008819D01*
X034477Y008760D01*
X034487Y008697D01*
X034484Y008634D01*
X034468Y008573D01*
X034440Y008516D01*
X034402Y008467D01*
X034353Y008426D01*
X034298Y008396D01*
X034439Y008055D01*
X034539Y008106D01*
X034786Y007904D01*
X034956Y008074D01*
X034754Y008321D01*
X034805Y008421D01*
X034839Y008528D01*
X035157Y008560D01*
X035157Y008800D01*
X034839Y008832D01*
X034805Y008939D01*
X034754Y009039D01*
X034956Y009286D01*
X034786Y009456D01*
X034539Y009254D01*
X034439Y009305D01*
X034332Y009339D01*
X034300Y009657D01*
X034060Y009657D01*
X034028Y009339D01*
X033921Y009305D01*
X033821Y009254D01*
X033574Y009456D01*
X033404Y009286D01*
X033606Y009039D01*
X033555Y008939D01*
X033521Y008832D01*
X033203Y008800D01*
X033203Y008560D01*
X033203Y008583D02*
X033890Y008583D01*
X033876Y008641D02*
X033203Y008641D01*
X033203Y008698D02*
X033874Y008698D01*
X033883Y008756D02*
X033203Y008756D01*
X033335Y008813D02*
X033904Y008813D01*
X033940Y008871D02*
X033533Y008871D01*
X033551Y008928D02*
X034001Y008928D01*
X034176Y008986D02*
X033579Y008986D01*
X033602Y009044D02*
X034758Y009044D01*
X034781Y008986D02*
X034207Y008986D01*
X034359Y008928D02*
X034809Y008928D01*
X034827Y008871D02*
X034421Y008871D01*
X034457Y008813D02*
X035025Y008813D01*
X035157Y008756D02*
X034478Y008756D01*
X034487Y008698D02*
X035157Y008698D01*
X035157Y008641D02*
X034484Y008641D01*
X034471Y008583D02*
X035157Y008583D01*
X034839Y008526D02*
X034445Y008526D01*
X034403Y008468D02*
X034820Y008468D01*
X034800Y008410D02*
X034325Y008410D01*
X034316Y008353D02*
X034770Y008353D01*
X034775Y008295D02*
X034339Y008295D01*
X034363Y008238D02*
X034822Y008238D01*
X034869Y008180D02*
X034387Y008180D01*
X034411Y008123D02*
X034916Y008123D01*
X034947Y008065D02*
X034589Y008065D01*
X034660Y008008D02*
X034889Y008008D01*
X034832Y007950D02*
X034730Y007950D01*
X034459Y008065D02*
X034435Y008065D01*
X033997Y008238D02*
X033538Y008238D01*
X033585Y008295D02*
X034021Y008295D01*
X034044Y008353D02*
X033590Y008353D01*
X033560Y008410D02*
X034035Y008410D01*
X033958Y008468D02*
X033540Y008468D01*
X033521Y008526D02*
X033915Y008526D01*
X033973Y008180D02*
X033491Y008180D01*
X033444Y008123D02*
X033949Y008123D01*
X033925Y008065D02*
X033901Y008065D01*
X033771Y008065D02*
X033413Y008065D01*
X033471Y008008D02*
X033700Y008008D01*
X033630Y007950D02*
X033528Y007950D01*
X033555Y009101D02*
X034805Y009101D01*
X034852Y009159D02*
X033508Y009159D01*
X033461Y009216D02*
X034899Y009216D01*
X034946Y009274D02*
X034563Y009274D01*
X034500Y009274D02*
X033860Y009274D01*
X033797Y009274D02*
X033414Y009274D01*
X033450Y009331D02*
X033726Y009331D01*
X033656Y009389D02*
X033507Y009389D01*
X033565Y009446D02*
X033585Y009446D01*
X034003Y009331D02*
X034357Y009331D01*
X034327Y009389D02*
X034033Y009389D01*
X034039Y009446D02*
X034321Y009446D01*
X034315Y009504D02*
X034045Y009504D01*
X034050Y009562D02*
X034310Y009562D01*
X034304Y009619D02*
X034056Y009619D01*
X034634Y009331D02*
X034910Y009331D01*
X034853Y009389D02*
X034704Y009389D01*
X034775Y009446D02*
X034795Y009446D01*
M02*
